<svg width="1685" height="808" viewBox="0 0 1685 808" fill="none" xmlns="http://www.w3.org/2000/svg">
<rect width="1685" height="477" rx="51" fill="url(#paint0_linear)"/>
<ellipse cx="1185.54" cy="359.411" rx="222" ry="208.5" fill="white" fill-opacity="0.4"/>
<circle cx="1185.54" cy="357.911" r="195" fill="white" fill-opacity="0.4"/>
<path fill-rule="evenodd" clip-rule="evenodd" d="M1367.43 77.4265L1133.06 28.7139C1105.41 22.9684 1078.21 41.3884 1072.29 69.8561L1063.45 112.401C1062.13 112.127 1060.84 112.972 1060.57 114.289L1056.12 135.704C1055.84 137.02 1056.69 138.309 1058.01 138.582L1052.9 163.127C1051.59 162.854 1050.3 163.699 1050.03 165.015L1040.47 210.976C1040.2 212.292 1041.04 213.581 1042.36 213.854L947.812 668.763C941.895 697.231 959.508 724.966 987.152 730.712L1221.53 779.424C1249.17 785.17 1276.37 766.75 1282.29 738.282L1366.98 330.828C1368.29 331.101 1369.58 330.256 1369.86 328.94L1385.87 251.889C1386.14 250.572 1385.3 249.284 1383.98 249.01L1406.77 139.375C1412.69 110.907 1395.07 83.1719 1367.43 77.4265ZM1076.26 70.6818C1081.71 44.4734 1106.76 27.5153 1132.21 32.8048L1366.58 81.5174C1392.03 86.8068 1408.24 112.341 1402.8 138.549L1278.32 737.456C1272.87 763.665 1247.82 780.623 1222.38 775.333L988.002 726.621C962.552 721.331 946.337 695.797 951.785 669.589L1076.26 70.6818ZM1029.1 277.672L1039.64 226.945C1038.32 226.671 1037.03 227.517 1036.76 228.833L1027.21 274.793C1026.94 276.11 1027.78 277.398 1029.1 277.672Z" fill="#AABBCC"/>
<mask id="mask0" mask-type="alpha" maskUnits="userSpaceOnUse" x="959" y="40" width="442" height="729">
<path d="M1229.9 761.532L991.595 712.003C973.743 708.293 962.327 690.642 966.085 672.56L1090.56 73.653C1094.32 55.5712 1111.82 43.9311 1129.68 47.6415L1367.98 97.1703C1385.83 100.881 1397.25 118.531 1393.49 136.613L1269.01 735.52C1265.25 753.602 1247.75 765.242 1229.9 761.532Z" fill="white"/>
</mask>
<g mask="url(#mask0)">
<rect x="1090.99" y="24.4053" width="325" height="618" rx="59" transform="rotate(11.7413 1090.99 24.4053)" fill="#0E1431"/>
</g>
<path opacity="0.6" fill-rule="evenodd" clip-rule="evenodd" d="M1057.71 714.222C1057.95 713.093 1059.03 712.362 1060.12 712.59L1162.61 733.891C1163.71 734.119 1164.41 735.22 1164.17 736.349C1163.94 737.479 1162.86 738.21 1161.76 737.982L1059.27 716.68C1058.18 716.452 1057.48 715.352 1057.71 714.222Z" fill="#333333"/>
<path fill-rule="evenodd" clip-rule="evenodd" d="M1388.5 135.575C1392.25 117.493 1381.08 99.8921 1363.52 96.2428L1333.73 90.0505C1331.09 89.5034 1328.5 91.2576 1327.94 93.9689L1327.43 96.4234C1325.35 106.405 1315.9 112.805 1306.21 110.791L1175.91 83.7096C1166.22 81.6951 1160.1 72.0587 1162.17 62.0769L1162.68 59.6223C1163.25 56.9111 1161.57 54.2697 1158.94 53.7225L1129.14 47.5302C1111.59 43.8809 1094.32 55.5705 1090.56 73.6523L966.085 672.559C962.327 690.641 973.505 708.242 991.063 711.892L1225.44 760.604C1242.99 764.254 1260.26 752.564 1264.02 734.482L1388.5 135.575ZM1132.21 32.803L1366.58 81.5156C1392 86.7997 1408.24 112.366 1402.8 138.547L1278.32 737.455C1272.88 763.636 1247.8 780.616 1222.38 775.332L988.002 726.619C962.578 721.335 946.343 695.769 951.785 669.587L1076.26 70.68C1081.7 44.4982 1106.78 27.5189 1132.21 32.803Z" fill="#333333"/>
<g opacity="0.2">
<path d="M1286.11 87.8371C1285.46 91.0002 1282.43 93.0469 1279.36 92.4085C1276.29 91.7701 1274.33 88.6884 1274.99 85.5254C1275.65 82.3623 1278.67 80.3156 1281.74 80.954C1284.82 81.5924 1286.77 84.6741 1286.11 87.8371Z" fill="white"/>
<path d="M1227.44 73.0806C1226.12 72.807 1224.82 73.6841 1224.54 75.0398C1224.26 76.3954 1225.1 77.7161 1226.42 77.9897L1261.37 85.2553C1262.69 85.5289 1263.98 84.6517 1264.27 83.2961C1264.55 81.9405 1263.71 80.6198 1262.39 80.3462L1227.44 73.0806Z" fill="white"/>
</g>
<path d="M1055.6 372.994C1055.43 373.808 1054.99 374.436 1054.28 374.876C1053.57 375.285 1052.83 375.408 1052.05 375.245C1051.2 375.069 1050.55 374.656 1050.1 374.007C1049.68 373.332 1049.56 372.587 1049.73 371.773L1055.37 344.609C1055.54 343.795 1055.97 343.18 1056.64 342.764C1057.32 342.317 1058.1 342.185 1058.98 342.368C1059.76 342.53 1060.38 342.952 1060.82 343.633C1061.28 344.283 1061.42 345.016 1061.25 345.83L1055.6 372.994ZM1080.37 354.413C1083.57 355.077 1085.58 356.491 1086.4 358.657C1087.23 360.79 1087.3 363.533 1086.6 366.886L1084.1 378.917C1083.93 379.731 1083.52 380.365 1082.87 380.818C1082.23 381.24 1081.5 381.367 1080.69 381.197C1079.87 381.028 1079.25 380.622 1078.83 379.978C1078.42 379.304 1078.29 378.559 1078.46 377.744L1080.96 365.714C1081.32 363.99 1081.24 362.568 1080.72 361.447C1080.21 360.295 1079.08 359.536 1077.32 359.172C1075.5 358.794 1073.97 359.03 1072.71 359.881C1071.46 360.7 1070.67 361.908 1070.34 363.506L1067.84 375.537C1067.67 376.352 1067.26 376.986 1066.61 377.439C1065.97 377.861 1065.24 377.987 1064.43 377.818C1063.61 377.648 1062.99 377.242 1062.57 376.599C1062.15 375.924 1062.03 375.179 1062.2 374.365L1066.24 354.956C1066.4 354.141 1066.81 353.523 1067.45 353.101C1068.1 352.648 1068.84 352.506 1069.65 352.675C1070.47 352.844 1071.08 353.266 1071.5 353.941C1071.92 354.584 1072.04 355.313 1071.87 356.128L1071.71 356.927C1072.79 355.975 1074.09 355.231 1075.6 354.697C1077.15 354.169 1078.74 354.074 1080.37 354.413ZM1102.83 380.26C1103.27 380.351 1103.61 380.652 1103.87 381.162C1104.16 381.647 1104.23 382.235 1104.09 382.924C1103.91 383.77 1103.29 384.393 1102.23 384.793C1101.2 385.168 1100.11 385.235 1098.95 384.994C1097.01 384.59 1095.45 383.841 1094.27 382.747C1093.13 381.627 1092.84 379.72 1093.4 377.026L1096.1 364.055L1093.94 363.606C1093.18 363.449 1092.61 363.068 1092.21 362.463C1091.82 361.858 1091.7 361.179 1091.85 360.427C1092 359.706 1092.38 359.163 1092.97 358.797C1093.58 358.4 1094.26 358.28 1095.01 358.436L1097.17 358.885L1097.8 355.878C1097.97 355.063 1098.37 354.445 1099.02 354.023C1099.7 353.576 1100.45 353.437 1101.26 353.607C1102.04 353.77 1102.64 354.188 1103.06 354.863C1103.48 355.506 1103.61 356.235 1103.44 357.05L1102.81 360.058L1106.15 360.751C1106.9 360.907 1107.48 361.288 1107.87 361.894C1108.27 362.499 1108.39 363.178 1108.23 363.93C1108.08 364.65 1107.71 365.209 1107.1 365.606C1106.5 365.972 1105.83 366.077 1105.07 365.921L1101.74 365.227L1099.09 377.963C1098.95 378.621 1099.03 379.142 1099.3 379.527C1099.59 379.881 1100.03 380.119 1100.63 380.243C1100.88 380.295 1101.24 380.304 1101.7 380.27C1102.11 380.192 1102.48 380.188 1102.83 380.26ZM1133.89 378.529C1133.71 379.274 1133.28 379.823 1132.62 380.176C1131.96 380.529 1131.25 380.627 1130.5 380.471L1114.99 377.248C1114.98 379.174 1115.54 380.81 1116.67 382.155C1117.8 383.469 1119.21 384.302 1120.9 384.654C1122.19 384.921 1123.21 385.019 1123.98 384.95C1124.75 384.849 1125.37 384.716 1125.83 384.55C1126.33 384.359 1126.66 384.233 1126.84 384.171C1127.46 384.006 1128.02 383.976 1128.52 384.08C1129.18 384.217 1129.7 384.569 1130.07 385.137C1130.44 385.705 1130.56 386.302 1130.43 386.928C1130.26 387.774 1129.66 388.451 1128.64 388.958C1127.61 389.496 1126.31 389.863 1124.73 390.058C1123.16 390.253 1121.62 390.194 1120.11 389.882C1117.48 389.335 1115.29 388.308 1113.54 386.801C1111.83 385.301 1110.64 383.484 1109.97 381.352C1109.31 379.188 1109.23 376.9 1109.73 374.487C1110.29 371.793 1111.35 369.545 1112.9 367.743C1114.45 365.941 1116.26 364.699 1118.33 364.018C1120.41 363.306 1122.49 363.168 1124.59 363.604C1126.66 364.034 1128.49 365.001 1130.07 366.507C1131.68 368.019 1132.84 369.845 1133.54 371.984C1134.24 374.123 1134.36 376.305 1133.89 378.529ZM1123.52 368.773C1119.88 368.018 1117.38 369.28 1116.01 372.558L1128.33 375.117L1128.4 374.788C1128.54 373.446 1128.14 372.185 1127.17 371.004C1126.21 369.823 1124.99 369.079 1123.52 368.773ZM1142.57 391.068C1142.4 391.883 1141.97 392.514 1141.29 392.96C1140.65 393.382 1139.92 393.509 1139.1 393.339C1138.32 393.176 1137.72 392.773 1137.3 392.13C1136.88 391.455 1136.76 390.711 1136.93 389.896L1142.96 360.853C1143.13 360.038 1143.54 359.42 1144.18 358.998C1144.86 358.551 1145.61 358.413 1146.43 358.582C1147.21 358.745 1147.81 359.164 1148.22 359.838C1148.65 360.481 1148.77 361.21 1148.6 362.025L1142.57 391.068ZM1155.23 393.701C1155.06 394.516 1154.64 395.146 1153.96 395.593C1153.32 396.015 1152.59 396.141 1151.77 395.972C1150.99 395.809 1150.39 395.406 1149.96 394.763C1149.55 394.088 1149.43 393.344 1149.59 392.529L1155.63 363.486C1155.8 362.671 1156.21 362.053 1156.85 361.631C1157.53 361.184 1158.28 361.045 1159.09 361.215C1159.88 361.377 1160.48 361.796 1160.89 362.471C1161.31 363.114 1161.44 363.843 1161.27 364.658L1155.23 393.701ZM1167.1 396.168C1166.93 396.982 1166.52 397.616 1165.87 398.069C1165.23 398.491 1164.5 398.618 1163.69 398.448C1162.87 398.279 1162.25 397.873 1161.83 397.229C1161.42 396.555 1161.29 395.81 1161.46 394.996L1165.5 375.586C1165.67 374.772 1166.07 374.153 1166.72 373.732C1167.37 373.278 1168.1 373.136 1168.91 373.306C1169.73 373.475 1170.34 373.897 1170.76 374.572C1171.18 375.215 1171.31 375.944 1171.14 376.758L1167.1 396.168ZM1169.5 370.241C1168.43 370.02 1167.72 369.691 1167.35 369.255C1166.98 368.82 1166.89 368.163 1167.07 367.286L1167.26 366.393C1167.44 365.516 1167.8 364.954 1168.35 364.707C1168.89 364.46 1169.68 364.444 1170.71 364.658C1171.81 364.886 1172.54 365.218 1172.9 365.654C1173.27 366.09 1173.36 366.746 1173.18 367.624L1173 368.517C1172.81 369.425 1172.44 370.003 1171.9 370.25C1171.4 370.472 1170.6 370.469 1169.5 370.241ZM1183.25 403.004C1180.99 402.536 1179.05 401.837 1177.41 400.908C1175.77 399.98 1174.33 398.682 1173.07 397.016C1172.38 396.088 1172.13 395.17 1172.32 394.261C1172.47 393.541 1172.87 392.97 1173.51 392.548C1174.16 392.094 1174.86 391.946 1175.61 392.102C1176.21 392.226 1176.7 392.525 1177.09 392.998C1178.13 394.293 1179.2 395.298 1180.29 396.016C1181.38 396.733 1182.74 397.261 1184.37 397.6C1186.13 397.965 1187.71 397.885 1189.13 397.363C1190.57 396.846 1191.42 396.009 1191.66 394.849C1191.95 393.44 1191.55 392.213 1190.46 391.169C1189.38 390.094 1187.52 389.07 1184.88 388.096C1178.22 385.667 1175.46 381.758 1176.58 376.369C1176.99 374.396 1177.86 372.796 1179.19 371.569C1180.53 370.312 1182.17 369.492 1184.12 369.112C1186.06 368.7 1188.14 368.721 1190.33 369.177C1192.3 369.588 1194.09 370.269 1195.69 371.223C1197.32 372.183 1198.61 373.269 1199.57 374.481C1200.33 375.39 1200.61 376.315 1200.42 377.255C1200.27 377.976 1199.87 378.563 1199.22 379.016C1198.57 379.438 1197.89 379.574 1197.17 379.424C1196.7 379.326 1196.31 379.097 1195.99 378.737C1195.31 377.91 1194.29 377.077 1192.93 376.238C1191.61 375.375 1190.36 374.823 1189.2 374.582C1187.23 374.172 1185.62 374.228 1184.36 374.752C1183.15 375.252 1182.42 376.097 1182.17 377.287C1181.89 378.634 1182.23 379.766 1183.18 380.684C1184.17 381.607 1185.8 382.536 1188.09 383.469C1190.69 384.499 1192.71 385.556 1194.15 386.64C1195.63 387.7 1196.64 388.956 1197.19 390.41C1197.75 391.833 1197.8 393.593 1197.37 395.693C1196.96 397.666 1196.03 399.288 1194.59 400.557C1193.19 401.802 1191.48 402.64 1189.46 403.07C1187.45 403.469 1185.38 403.447 1183.25 403.004ZM1213.57 403.277C1214.01 403.368 1214.36 403.669 1214.61 404.179C1214.9 404.664 1214.98 405.252 1214.83 405.941C1214.66 406.787 1214.04 407.41 1212.97 407.81C1211.95 408.185 1210.85 408.252 1209.7 408.011C1207.75 407.607 1206.19 406.858 1205.02 405.763C1203.88 404.644 1203.58 402.737 1204.14 400.043L1206.84 387.072L1204.68 386.623C1203.93 386.466 1203.35 386.085 1202.96 385.48C1202.56 384.874 1202.44 384.196 1202.59 383.444C1202.74 382.723 1203.12 382.18 1203.72 381.814C1204.32 381.417 1205 381.297 1205.75 381.453L1207.92 381.902L1208.54 378.895C1208.71 378.08 1209.12 377.462 1209.76 377.04C1210.44 376.593 1211.19 376.454 1212 376.624C1212.79 376.787 1213.39 377.205 1213.8 377.88C1214.22 378.523 1214.35 379.252 1214.18 380.067L1213.55 383.075L1216.89 383.768C1217.64 383.924 1218.22 384.305 1218.62 384.911C1219.01 385.516 1219.13 386.195 1218.98 386.947C1218.83 387.667 1218.45 388.226 1217.84 388.623C1217.24 388.989 1216.57 389.094 1215.82 388.938L1212.48 388.244L1209.83 400.98C1209.7 401.638 1209.77 402.159 1210.05 402.544C1210.33 402.898 1210.77 403.136 1211.37 403.26C1211.62 403.312 1211.98 403.321 1212.44 403.287C1212.85 403.209 1213.23 403.205 1213.57 403.277ZM1246.11 402.489C1245.59 404.995 1244.55 407.134 1243.01 408.905C1241.47 410.644 1239.6 411.857 1237.4 412.543C1235.23 413.236 1232.97 413.338 1230.62 412.85C1228.24 412.355 1226.19 411.357 1224.48 409.857C1222.76 408.357 1221.54 406.503 1220.83 404.294C1220.12 402.055 1220.02 399.682 1220.54 397.175C1221.06 394.669 1222.09 392.546 1223.63 390.807C1225.18 389.036 1227.03 387.804 1229.2 387.111C1231.38 386.387 1233.66 386.272 1236.04 386.767C1238.39 387.256 1240.42 388.266 1242.13 389.797C1243.87 391.304 1245.1 393.177 1245.81 395.417C1246.53 397.625 1246.63 399.983 1246.11 402.489ZM1240.47 401.317C1240.79 399.782 1240.74 398.35 1240.33 397.023C1239.96 395.671 1239.29 394.552 1238.33 393.666C1237.4 392.787 1236.28 392.21 1234.97 391.937C1233.65 391.663 1232.38 391.742 1231.14 392.172C1229.94 392.608 1228.88 393.369 1227.97 394.454C1227.1 395.515 1226.5 396.812 1226.18 398.347C1225.86 399.883 1225.89 401.311 1226.27 402.631C1226.68 403.959 1227.35 405.062 1228.28 405.941C1229.24 406.827 1230.38 407.407 1231.69 407.68C1233.01 407.954 1234.27 407.872 1235.47 407.436C1236.7 407.006 1237.76 406.261 1238.63 405.2C1239.54 404.147 1240.15 402.852 1240.47 401.317ZM1264.48 392.679C1267.15 393.233 1269.21 394.102 1270.66 395.286C1272.12 396.44 1272.71 397.705 1272.42 399.084C1272.28 399.773 1271.95 400.342 1271.43 400.79C1270.92 401.206 1270.33 401.346 1269.67 401.21C1269.17 401.105 1268.78 400.958 1268.49 400.768C1268.21 400.546 1267.94 400.293 1267.67 400.008C1267.44 399.699 1267.2 399.437 1266.95 399.222C1266.67 399 1266.23 398.761 1265.63 398.506C1265.06 398.257 1264.58 398.093 1264.21 398.015C1261.86 397.526 1259.86 397.879 1258.2 399.071C1256.59 400.239 1255.54 401.998 1255.05 404.347C1254.58 406.603 1254.86 408.623 1255.9 410.407C1256.94 412.159 1258.51 413.254 1260.61 413.69C1262.14 414.009 1263.33 414.059 1264.16 413.839C1264.36 413.784 1264.65 413.68 1265.01 413.525C1265.4 413.346 1265.75 413.224 1266.06 413.157C1266.37 413.09 1266.73 413.099 1267.14 413.184C1267.92 413.347 1268.48 413.724 1268.81 414.317C1269.18 414.916 1269.28 415.607 1269.12 416.39C1268.96 417.142 1268.38 417.756 1267.36 418.231C1266.35 418.707 1265.08 418.999 1263.55 419.106C1262.03 419.183 1260.46 419.052 1258.83 418.713C1256.42 418.212 1254.4 417.205 1252.79 415.693C1251.21 414.187 1250.12 412.343 1249.53 410.161C1248.94 407.948 1248.9 405.619 1249.41 403.175C1249.94 400.637 1250.92 398.489 1252.37 396.73C1253.84 394.978 1255.63 393.749 1257.74 393.043C1259.86 392.306 1262.1 392.184 1264.48 392.679ZM1294.34 420.455C1294.8 421.205 1294.95 421.972 1294.79 422.755C1294.63 423.539 1294.18 424.132 1293.44 424.534C1292.73 424.943 1292.04 425.076 1291.35 424.932C1290.53 424.763 1289.91 424.306 1289.47 423.563L1282.87 412.875L1280.13 414.512L1279.1 419.446C1278.93 420.261 1278.52 420.895 1277.87 421.348C1277.23 421.77 1276.5 421.896 1275.69 421.727C1274.87 421.557 1274.25 421.151 1273.83 420.508C1273.42 419.833 1273.29 419.089 1273.46 418.274L1279.5 389.231C1279.67 388.416 1280.08 387.798 1280.72 387.376C1281.37 386.923 1282.1 386.781 1282.92 386.95C1283.73 387.119 1284.34 387.541 1284.76 388.216C1285.18 388.859 1285.31 389.588 1285.14 390.403L1281.53 407.791L1293.6 400.153C1294.32 399.682 1295.07 399.527 1295.86 399.69C1296.55 399.833 1297.1 400.258 1297.5 400.964C1297.95 401.645 1298.11 402.283 1297.99 402.879C1297.83 403.631 1297.31 404.257 1296.42 404.759L1287.97 409.817L1294.34 420.455Z" fill="#00CF98"/>
<path d="M1295.93 398.874C1298.38 397.387 1301.57 398.167 1303.06 400.617V400.617L1290.28 408.374L1287.59 403.939L1295.93 398.874Z" fill="#00CF98"/>
<path d="M1295.72 399.053V399.053C1298.3 397.488 1301.66 398.307 1303.22 400.883L1307.68 408.224V408.224C1305.11 409.789 1301.75 408.97 1300.19 406.394L1295.72 399.053Z" fill="#00CF98"/>
<path d="M1307.85 408.12C1305.27 409.681 1301.91 408.856 1300.35 406.278V406.278L1312.73 398.784L1315.56 403.452L1307.85 408.12Z" fill="#00CF98"/>
<path d="M1322.51 396.137L1316.8 405.596L1311.48 396.673L1322.51 396.137Z" fill="#00CF98"/>
<defs>
<linearGradient id="paint0_linear" x1="89" y1="230.247" x2="1716.06" y2="462.622" gradientUnits="userSpaceOnUse">
<stop stop-color="#00CD9F"/>
<stop offset="1" stop-color="#00B9D7"/>
</linearGradient>
</defs>
</svg>
