<svg width="987" height="536" viewBox="0 0 987 536" fill="none" xmlns="http://www.w3.org/2000/svg">
<rect width="984" height="536" rx="19" fill="#2D3555"/>
<path d="M68.9311 482.197V482.964H68.7651C68.062 482.977 67.5021 483.185 67.0854 483.589C66.6688 483.993 66.4279 484.561 66.3628 485.293C66.7371 484.863 67.2482 484.648 67.896 484.648C68.5145 484.648 69.0076 484.867 69.3755 485.303C69.7466 485.739 69.9321 486.302 69.9321 486.992C69.9321 487.725 69.7319 488.311 69.3315 488.75C68.9344 489.189 68.4005 489.409 67.73 489.409C67.0496 489.409 66.4979 489.149 66.0747 488.628C65.6515 488.104 65.4399 487.43 65.4399 486.606V486.26C65.4399 484.951 65.7182 483.952 66.2749 483.262C66.8348 482.568 67.6665 482.214 68.77 482.197H68.9311ZM67.7446 485.4C67.4354 485.4 67.1505 485.493 66.8901 485.679C66.6297 485.864 66.449 486.097 66.3481 486.377V486.709C66.3481 487.295 66.48 487.767 66.7436 488.125C67.0073 488.483 67.3361 488.662 67.73 488.662C68.1369 488.662 68.4559 488.512 68.687 488.213C68.9214 487.913 69.0386 487.521 69.0386 487.036C69.0386 486.548 68.9197 486.154 68.6821 485.854C68.4477 485.552 68.1352 485.4 67.7446 485.4ZM71.0649 488.838C71.0649 488.682 71.1105 488.551 71.2016 488.447C71.296 488.343 71.436 488.291 71.6216 488.291C71.8071 488.291 71.9471 488.343 72.0415 488.447C72.1391 488.551 72.188 488.682 72.188 488.838C72.188 488.988 72.1391 489.113 72.0415 489.214C71.9471 489.315 71.8071 489.365 71.6216 489.365C71.436 489.365 71.296 489.315 71.2016 489.214C71.1105 489.113 71.0649 488.988 71.0649 488.838ZM71.0698 484.526C71.0698 484.37 71.1154 484.24 71.2065 484.136C71.3009 484.032 71.4409 483.979 71.6264 483.979C71.812 483.979 71.952 484.032 72.0464 484.136C72.144 484.24 72.1929 484.37 72.1929 484.526C72.1929 484.676 72.144 484.801 72.0464 484.902C71.952 485.003 71.812 485.054 71.6264 485.054C71.4409 485.054 71.3009 485.003 71.2065 484.902C71.1154 484.801 71.0698 484.676 71.0698 484.526ZM77.8813 486.279C77.8813 487.337 77.7007 488.123 77.3393 488.638C76.978 489.152 76.4132 489.409 75.645 489.409C74.8865 489.409 74.325 489.159 73.9604 488.657C73.5958 488.153 73.407 487.401 73.394 486.401V485.195C73.394 484.15 73.5747 483.374 73.936 482.866C74.2973 482.358 74.8637 482.104 75.6352 482.104C76.4002 482.104 76.9634 482.35 77.3247 482.842C77.686 483.33 77.8716 484.085 77.8813 485.107V486.279ZM76.978 485.044C76.978 484.279 76.8706 483.722 76.6557 483.374C76.4409 483.022 76.1007 482.847 75.6352 482.847C75.173 482.847 74.8361 483.021 74.6245 483.369C74.4129 483.717 74.3039 484.253 74.2973 484.976V486.421C74.2973 487.189 74.408 487.757 74.6294 488.125C74.854 488.49 75.1925 488.672 75.645 488.672C76.091 488.672 76.4214 488.499 76.6362 488.154C76.8543 487.809 76.9682 487.266 76.978 486.523V485.044ZM83.4966 486.279C83.4966 487.337 83.3159 488.123 82.9546 488.638C82.5932 489.152 82.0285 489.409 81.2602 489.409C80.5018 489.409 79.9402 489.159 79.5757 488.657C79.2111 488.153 79.0223 487.401 79.0093 486.401V485.195C79.0093 484.15 79.1899 483.374 79.5512 482.866C79.9126 482.358 80.479 482.104 81.2505 482.104C82.0154 482.104 82.5786 482.35 82.9399 482.842C83.3012 483.33 83.4868 484.085 83.4966 485.107V486.279ZM82.5932 485.044C82.5932 484.279 82.4858 483.722 82.271 483.374C82.0561 483.022 81.716 482.847 81.2505 482.847C80.7882 482.847 80.4513 483.021 80.2397 483.369C80.0281 483.717 79.9191 484.253 79.9126 484.976V486.421C79.9126 487.189 80.0233 487.757 80.2446 488.125C80.4692 488.49 80.8078 488.672 81.2602 488.672C81.7062 488.672 82.0366 488.499 82.2514 488.154C82.4695 487.809 82.5835 487.266 82.5932 486.523V485.044Z" fill="#A3A3A3"/>
<path d="M163.946 482.71L161.002 489.312H160.055L162.989 482.944H159.142V482.202H163.946V482.71ZM165.035 488.838C165.035 488.682 165.081 488.551 165.172 488.447C165.266 488.343 165.406 488.291 165.592 488.291C165.777 488.291 165.917 488.343 166.012 488.447C166.11 488.551 166.158 488.682 166.158 488.838C166.158 488.988 166.11 489.113 166.012 489.214C165.917 489.315 165.777 489.365 165.592 489.365C165.406 489.365 165.266 489.315 165.172 489.214C165.081 489.113 165.035 488.988 165.035 488.838ZM165.04 484.526C165.04 484.37 165.086 484.24 165.177 484.136C165.271 484.032 165.411 483.979 165.597 483.979C165.782 483.979 165.922 484.032 166.017 484.136C166.114 484.24 166.163 484.37 166.163 484.526C166.163 484.676 166.114 484.801 166.017 484.902C165.922 485.003 165.782 485.054 165.597 485.054C165.411 485.054 165.271 485.003 165.177 484.902C165.086 484.801 165.04 484.676 165.04 484.526ZM171.852 486.279C171.852 487.337 171.671 488.123 171.31 488.638C170.948 489.152 170.384 489.409 169.615 489.409C168.857 489.409 168.295 489.159 167.931 488.657C167.566 488.153 167.377 487.401 167.364 486.401V485.195C167.364 484.15 167.545 483.374 167.906 482.866C168.268 482.358 168.834 482.104 169.606 482.104C170.371 482.104 170.934 482.35 171.295 482.842C171.656 483.33 171.842 484.085 171.852 485.107V486.279ZM170.948 485.044C170.948 484.279 170.841 483.722 170.626 483.374C170.411 483.022 170.071 482.847 169.606 482.847C169.143 482.847 168.806 483.021 168.595 483.369C168.383 483.717 168.274 484.253 168.268 484.976V486.421C168.268 487.189 168.378 487.757 168.6 488.125C168.824 488.49 169.163 488.672 169.615 488.672C170.061 488.672 170.392 488.499 170.607 488.154C170.825 487.809 170.939 487.266 170.948 486.523V485.044ZM177.467 486.279C177.467 487.337 177.286 488.123 176.925 488.638C176.564 489.152 175.999 489.409 175.231 489.409C174.472 489.409 173.911 489.159 173.546 488.657C173.181 488.153 172.993 487.401 172.98 486.401V485.195C172.98 484.15 173.16 483.374 173.522 482.866C173.883 482.358 174.449 482.104 175.221 482.104C175.986 482.104 176.549 482.35 176.91 482.842C177.272 483.33 177.457 484.085 177.467 485.107V486.279ZM176.564 485.044C176.564 484.279 176.456 483.722 176.241 483.374C176.026 483.022 175.686 482.847 175.221 482.847C174.759 482.847 174.422 483.021 174.21 483.369C173.999 483.717 173.889 484.253 173.883 484.976V486.421C173.883 487.189 173.994 487.757 174.215 488.125C174.44 488.49 174.778 488.672 175.231 488.672C175.677 488.672 176.007 488.499 176.222 488.154C176.44 487.809 176.554 487.266 176.564 486.523V485.044Z" fill="#A3A3A3"/>
<path d="M258.617 484.058C258.617 484.412 258.523 484.728 258.334 485.005C258.149 485.282 257.896 485.498 257.577 485.654C257.948 485.814 258.241 486.047 258.456 486.353C258.674 486.659 258.783 487.005 258.783 487.393C258.783 488.008 258.575 488.498 258.158 488.862C257.745 489.227 257.2 489.409 256.523 489.409C255.839 489.409 255.291 489.227 254.877 488.862C254.467 488.494 254.262 488.005 254.262 487.393C254.262 487.008 254.366 486.662 254.574 486.353C254.786 486.043 255.077 485.809 255.448 485.649C255.133 485.493 254.884 485.277 254.701 485C254.519 484.723 254.428 484.409 254.428 484.058C254.428 483.459 254.62 482.983 255.004 482.632C255.388 482.28 255.894 482.104 256.523 482.104C257.148 482.104 257.652 482.28 258.036 482.632C258.424 482.983 258.617 483.459 258.617 484.058ZM257.88 487.373C257.88 486.976 257.753 486.652 257.499 486.401C257.249 486.151 256.92 486.025 256.513 486.025C256.106 486.025 255.779 486.149 255.532 486.396C255.287 486.644 255.165 486.969 255.165 487.373C255.165 487.777 255.284 488.094 255.522 488.325C255.763 488.556 256.096 488.672 256.523 488.672C256.946 488.672 257.278 488.556 257.519 488.325C257.76 488.091 257.88 487.773 257.88 487.373ZM256.523 482.847C256.168 482.847 255.88 482.957 255.658 483.179C255.44 483.397 255.331 483.695 255.331 484.072C255.331 484.434 255.439 484.727 255.654 484.951C255.872 485.173 256.161 485.283 256.523 485.283C256.884 485.283 257.172 485.173 257.387 484.951C257.605 484.727 257.714 484.434 257.714 484.072C257.714 483.711 257.602 483.416 257.377 483.188C257.153 482.961 256.868 482.847 256.523 482.847ZM259.985 488.838C259.985 488.682 260.03 488.551 260.121 488.447C260.216 488.343 260.356 488.291 260.541 488.291C260.727 488.291 260.867 488.343 260.961 488.447C261.059 488.551 261.108 488.682 261.108 488.838C261.108 488.988 261.059 489.113 260.961 489.214C260.867 489.315 260.727 489.365 260.541 489.365C260.356 489.365 260.216 489.315 260.121 489.214C260.03 489.113 259.985 488.988 259.985 488.838ZM259.99 484.526C259.99 484.37 260.035 484.24 260.126 484.136C260.221 484.032 260.361 483.979 260.546 483.979C260.732 483.979 260.872 484.032 260.966 484.136C261.064 484.24 261.113 484.37 261.113 484.526C261.113 484.676 261.064 484.801 260.966 484.902C260.872 485.003 260.732 485.054 260.546 485.054C260.361 485.054 260.221 485.003 260.126 484.902C260.035 484.801 259.99 484.676 259.99 484.526ZM266.801 486.279C266.801 487.337 266.62 488.123 266.259 488.638C265.898 489.152 265.333 489.409 264.565 489.409C263.806 489.409 263.245 489.159 262.88 488.657C262.516 488.153 262.327 487.401 262.314 486.401V485.195C262.314 484.15 262.494 483.374 262.856 482.866C263.217 482.358 263.783 482.104 264.555 482.104C265.32 482.104 265.883 482.35 266.244 482.842C266.606 483.33 266.791 484.085 266.801 485.107V486.279ZM265.898 485.044C265.898 484.279 265.79 483.722 265.575 483.374C265.361 483.022 265.02 482.847 264.555 482.847C264.093 482.847 263.756 483.021 263.544 483.369C263.333 483.717 263.224 484.253 263.217 484.976V486.421C263.217 487.189 263.328 487.757 263.549 488.125C263.774 488.49 264.112 488.672 264.565 488.672C265.011 488.672 265.341 488.499 265.556 488.154C265.774 487.809 265.888 487.266 265.898 486.523V485.044ZM272.416 486.279C272.416 487.337 272.236 488.123 271.874 488.638C271.513 489.152 270.948 489.409 270.18 489.409C269.421 489.409 268.86 489.159 268.495 488.657C268.131 488.153 267.942 487.401 267.929 486.401V485.195C267.929 484.15 268.11 483.374 268.471 482.866C268.832 482.358 269.399 482.104 270.17 482.104C270.935 482.104 271.498 482.35 271.86 482.842C272.221 483.33 272.407 484.085 272.416 485.107V486.279ZM271.513 485.044C271.513 484.279 271.406 483.722 271.191 483.374C270.976 483.022 270.636 482.847 270.17 482.847C269.708 482.847 269.371 483.021 269.159 483.369C268.948 483.717 268.839 484.253 268.832 484.976V486.421C268.832 487.189 268.943 487.757 269.164 488.125C269.389 488.49 269.727 488.672 270.18 488.672C270.626 488.672 270.956 488.499 271.171 488.154C271.389 487.809 271.503 487.266 271.513 486.523V485.044Z" fill="#A3A3A3"/>
<path d="M351.738 486.187C351.549 486.411 351.323 486.592 351.06 486.729C350.799 486.865 350.513 486.934 350.2 486.934C349.79 486.934 349.432 486.833 349.126 486.631C348.823 486.429 348.589 486.146 348.423 485.781C348.257 485.413 348.174 485.008 348.174 484.565C348.174 484.09 348.263 483.662 348.442 483.281C348.625 482.9 348.882 482.609 349.214 482.407C349.546 482.205 349.933 482.104 350.376 482.104C351.079 482.104 351.632 482.368 352.036 482.896C352.443 483.42 352.646 484.136 352.646 485.044V485.308C352.646 486.691 352.373 487.702 351.826 488.34C351.279 488.975 350.454 489.3 349.351 489.316H349.175V488.555H349.365C350.111 488.542 350.684 488.348 351.084 487.974C351.484 487.596 351.702 487 351.738 486.187ZM350.347 486.187C350.649 486.187 350.928 486.094 351.182 485.908C351.439 485.723 351.626 485.493 351.743 485.22V484.858C351.743 484.266 351.615 483.784 351.357 483.413C351.1 483.042 350.775 482.856 350.381 482.856C349.984 482.856 349.665 483.009 349.424 483.315C349.183 483.618 349.063 484.019 349.063 484.517C349.063 485.002 349.178 485.402 349.409 485.718C349.644 486.03 349.956 486.187 350.347 486.187ZM353.955 488.838C353.955 488.682 354.001 488.551 354.092 488.447C354.186 488.343 354.326 488.291 354.512 488.291C354.697 488.291 354.837 488.343 354.932 488.447C355.029 488.551 355.078 488.682 355.078 488.838C355.078 488.988 355.029 489.113 354.932 489.214C354.837 489.315 354.697 489.365 354.512 489.365C354.326 489.365 354.186 489.315 354.092 489.214C354.001 489.113 353.955 488.988 353.955 488.838ZM353.96 484.526C353.96 484.37 354.006 484.24 354.097 484.136C354.191 484.032 354.331 483.979 354.517 483.979C354.702 483.979 354.842 484.032 354.937 484.136C355.034 484.24 355.083 484.37 355.083 484.526C355.083 484.676 355.034 484.801 354.937 484.902C354.842 485.003 354.702 485.054 354.517 485.054C354.331 485.054 354.191 485.003 354.097 484.902C354.006 484.801 353.96 484.676 353.96 484.526ZM360.771 486.279C360.771 487.337 360.591 488.123 360.23 488.638C359.868 489.152 359.303 489.409 358.535 489.409C357.777 489.409 357.215 489.159 356.851 488.657C356.486 488.153 356.297 487.401 356.284 486.401V485.195C356.284 484.15 356.465 483.374 356.826 482.866C357.188 482.358 357.754 482.104 358.525 482.104C359.29 482.104 359.854 482.35 360.215 482.842C360.576 483.33 360.762 484.085 360.771 485.107V486.279ZM359.868 485.044C359.868 484.279 359.761 483.722 359.546 483.374C359.331 483.022 358.991 482.847 358.525 482.847C358.063 482.847 357.726 483.021 357.515 483.369C357.303 483.717 357.194 484.253 357.188 484.976V486.421C357.188 487.189 357.298 487.757 357.52 488.125C357.744 488.49 358.083 488.672 358.535 488.672C358.981 488.672 359.312 488.499 359.526 488.154C359.744 487.809 359.858 487.266 359.868 486.523V485.044ZM366.387 486.279C366.387 487.337 366.206 488.123 365.845 488.638C365.483 489.152 364.919 489.409 364.15 489.409C363.392 489.409 362.83 489.159 362.466 488.657C362.101 488.153 361.912 487.401 361.899 486.401V485.195C361.899 484.15 362.08 483.374 362.441 482.866C362.803 482.358 363.369 482.104 364.141 482.104C364.906 482.104 365.469 482.35 365.83 482.842C366.191 483.33 366.377 484.085 366.387 485.107V486.279ZM365.483 485.044C365.483 484.279 365.376 483.722 365.161 483.374C364.946 483.022 364.606 482.847 364.141 482.847C363.678 482.847 363.341 483.021 363.13 483.369C362.918 483.717 362.809 484.253 362.803 484.976V486.421C362.803 487.189 362.913 487.757 363.135 488.125C363.359 488.49 363.698 488.672 364.15 488.672C364.596 488.672 364.927 488.499 365.142 488.154C365.36 487.809 365.474 487.266 365.483 486.523V485.044Z" fill="#A3A3A3"/>
<path d="M446.194 489.312H445.286V483.291L443.465 483.96V483.14L446.053 482.168H446.194V489.312ZM453.299 486.279C453.299 487.337 453.118 488.123 452.757 488.638C452.395 489.152 451.831 489.409 451.062 489.409C450.304 489.409 449.742 489.159 449.378 488.657C449.013 488.153 448.824 487.401 448.811 486.401V485.195C448.811 484.15 448.992 483.374 449.353 482.866C449.715 482.358 450.281 482.104 451.053 482.104C451.818 482.104 452.381 482.35 452.742 482.842C453.103 483.33 453.289 484.085 453.299 485.107V486.279ZM452.395 485.044C452.395 484.279 452.288 483.722 452.073 483.374C451.858 483.022 451.518 482.847 451.053 482.847C450.59 482.847 450.253 483.021 450.042 483.369C449.83 483.717 449.721 484.253 449.715 484.976V486.421C449.715 487.189 449.825 487.757 450.047 488.125C450.271 488.49 450.61 488.672 451.062 488.672C451.508 488.672 451.839 488.499 452.054 488.154C452.272 487.809 452.386 487.266 452.395 486.523V485.044ZM454.519 488.838C454.519 488.682 454.565 488.551 454.656 488.447C454.751 488.343 454.891 488.291 455.076 488.291C455.262 488.291 455.402 488.343 455.496 488.447C455.594 488.551 455.642 488.682 455.642 488.838C455.642 488.988 455.594 489.113 455.496 489.214C455.402 489.315 455.262 489.365 455.076 489.365C454.891 489.365 454.751 489.315 454.656 489.214C454.565 489.113 454.519 488.988 454.519 488.838ZM454.524 484.526C454.524 484.37 454.57 484.24 454.661 484.136C454.755 484.032 454.895 483.979 455.081 483.979C455.266 483.979 455.406 484.032 455.501 484.136C455.599 484.24 455.647 484.37 455.647 484.526C455.647 484.676 455.599 484.801 455.501 484.902C455.406 485.003 455.266 485.054 455.081 485.054C454.895 485.054 454.755 485.003 454.661 484.902C454.57 484.801 454.524 484.676 454.524 484.526ZM461.336 486.279C461.336 487.337 461.155 488.123 460.794 488.638C460.433 489.152 459.868 489.409 459.099 489.409C458.341 489.409 457.78 489.159 457.415 488.657C457.05 488.153 456.862 487.401 456.849 486.401V485.195C456.849 484.15 457.029 483.374 457.391 482.866C457.752 482.358 458.318 482.104 459.09 482.104C459.855 482.104 460.418 482.35 460.779 482.842C461.141 483.33 461.326 484.085 461.336 485.107V486.279ZM460.433 485.044C460.433 484.279 460.325 483.722 460.11 483.374C459.895 483.022 459.555 482.847 459.09 482.847C458.627 482.847 458.291 483.021 458.079 483.369C457.867 483.717 457.758 484.253 457.752 484.976V486.421C457.752 487.189 457.863 487.757 458.084 488.125C458.308 488.49 458.647 488.672 459.099 488.672C459.545 488.672 459.876 488.499 460.091 488.154C460.309 487.809 460.423 487.266 460.433 486.523V485.044ZM454.51 496.279C454.51 497.337 454.329 498.123 453.968 498.638C453.606 499.152 453.042 499.409 452.273 499.409C451.515 499.409 450.953 499.159 450.589 498.657C450.224 498.153 450.035 497.401 450.022 496.401V495.195C450.022 494.15 450.203 493.374 450.564 492.866C450.926 492.358 451.492 492.104 452.264 492.104C453.029 492.104 453.592 492.35 453.953 492.842C454.314 493.33 454.5 494.085 454.51 495.107V496.279ZM453.606 495.044C453.606 494.279 453.499 493.722 453.284 493.374C453.069 493.022 452.729 492.847 452.264 492.847C451.801 492.847 451.464 493.021 451.253 493.369C451.041 493.717 450.932 494.253 450.926 494.976V496.421C450.926 497.189 451.036 497.757 451.258 498.125C451.482 498.49 451.821 498.672 452.273 498.672C452.719 498.672 453.05 498.499 453.265 498.154C453.483 497.809 453.597 497.266 453.606 496.523V495.044Z" fill="#A3A3A3"/>
<path d="M545.153 489.022H544.245V483.002L542.423 483.671V482.851L545.011 481.879H545.153V489.022ZM550.768 489.022H549.86V483.002L548.039 483.671V482.851L550.627 481.879H550.768V489.022ZM553.478 488.549C553.478 488.393 553.524 488.262 553.615 488.158C553.709 488.054 553.849 488.002 554.035 488.002C554.22 488.002 554.36 488.054 554.455 488.158C554.552 488.262 554.601 488.393 554.601 488.549C554.601 488.699 554.552 488.824 554.455 488.925C554.36 489.026 554.22 489.076 554.035 489.076C553.849 489.076 553.709 489.026 553.615 488.925C553.524 488.824 553.478 488.699 553.478 488.549ZM553.483 484.237C553.483 484.081 553.529 483.951 553.62 483.847C553.714 483.743 553.854 483.69 554.04 483.69C554.225 483.69 554.365 483.743 554.46 483.847C554.557 483.951 554.606 484.081 554.606 484.237C554.606 484.387 554.557 484.512 554.46 484.613C554.365 484.714 554.225 484.765 554.04 484.765C553.854 484.765 553.714 484.714 553.62 484.613C553.529 484.512 553.483 484.387 553.483 484.237ZM560.295 485.99C560.295 487.048 560.114 487.834 559.753 488.349C559.391 488.863 558.826 489.12 558.058 489.12C557.3 489.12 556.738 488.869 556.374 488.368C556.009 487.864 555.82 487.112 555.807 486.112V484.906C555.807 483.861 555.988 483.085 556.349 482.577C556.711 482.069 557.277 481.815 558.048 481.815C558.813 481.815 559.377 482.061 559.738 482.553C560.099 483.041 560.285 483.796 560.295 484.818V485.99ZM559.391 484.755C559.391 483.99 559.284 483.433 559.069 483.085C558.854 482.733 558.514 482.558 558.048 482.558C557.586 482.558 557.249 482.732 557.038 483.08C556.826 483.428 556.717 483.964 556.711 484.687V486.132C556.711 486.9 556.821 487.468 557.043 487.836C557.267 488.201 557.606 488.383 558.058 488.383C558.504 488.383 558.835 488.21 559.049 487.865C559.268 487.52 559.381 486.977 559.391 486.234V484.755ZM565.91 485.99C565.91 487.048 565.729 487.834 565.368 488.349C565.006 488.863 564.442 489.12 563.673 489.12C562.915 489.12 562.353 488.869 561.989 488.368C561.624 487.864 561.436 487.112 561.422 486.112V484.906C561.422 483.861 561.603 483.085 561.964 482.577C562.326 482.069 562.892 481.815 563.664 481.815C564.429 481.815 564.992 482.061 565.353 482.553C565.714 483.041 565.9 483.796 565.91 484.818V485.99ZM565.006 484.755C565.006 483.99 564.899 483.433 564.684 483.085C564.469 482.733 564.129 482.558 563.664 482.558C563.201 482.558 562.865 482.732 562.653 483.08C562.441 483.428 562.332 483.964 562.326 484.687V486.132C562.326 486.9 562.436 487.468 562.658 487.836C562.882 488.201 563.221 488.383 563.673 488.383C564.119 488.383 564.45 488.21 564.665 487.865C564.883 487.52 564.997 486.977 565.006 486.234V484.755Z" fill="#A3A3A3"/>
<path d="M641.035 489.022H640.127V483.002L638.306 483.671V482.851L640.894 481.879H641.035V489.022ZM648.34 489.022H643.682V488.373L646.143 485.639C646.507 485.225 646.758 484.89 646.895 484.633C647.035 484.372 647.105 484.104 647.105 483.827C647.105 483.456 646.992 483.152 646.768 482.914C646.543 482.676 646.244 482.558 645.869 482.558C645.42 482.558 645.07 482.686 644.82 482.943C644.572 483.197 644.449 483.552 644.449 484.008H643.545C643.545 483.354 643.755 482.825 644.175 482.421C644.598 482.017 645.163 481.815 645.869 481.815C646.53 481.815 647.053 481.99 647.437 482.338C647.821 482.683 648.013 483.144 648.013 483.72C648.013 484.42 647.567 485.253 646.675 486.22L644.771 488.285H648.34V489.022ZM649.361 488.549C649.361 488.393 649.406 488.262 649.497 488.158C649.592 488.054 649.732 488.002 649.917 488.002C650.103 488.002 650.243 488.054 650.337 488.158C650.435 488.262 650.484 488.393 650.484 488.549C650.484 488.699 650.435 488.824 650.337 488.925C650.243 489.026 650.103 489.076 649.917 489.076C649.732 489.076 649.592 489.026 649.497 488.925C649.406 488.824 649.361 488.699 649.361 488.549ZM649.365 484.237C649.365 484.081 649.411 483.951 649.502 483.847C649.597 483.743 649.737 483.69 649.922 483.69C650.108 483.69 650.248 483.743 650.342 483.847C650.44 483.951 650.489 484.081 650.489 484.237C650.489 484.387 650.44 484.512 650.342 484.613C650.248 484.714 650.108 484.765 649.922 484.765C649.737 484.765 649.597 484.714 649.502 484.613C649.411 484.512 649.365 484.387 649.365 484.237ZM656.177 485.99C656.177 487.048 655.996 487.834 655.635 488.349C655.274 488.863 654.709 489.12 653.941 489.12C653.182 489.12 652.621 488.869 652.256 488.368C651.892 487.864 651.703 487.112 651.69 486.112V484.906C651.69 483.861 651.87 483.085 652.232 482.577C652.593 482.069 653.159 481.815 653.931 481.815C654.696 481.815 655.259 482.061 655.62 482.553C655.982 483.041 656.167 483.796 656.177 484.818V485.99ZM655.274 484.755C655.274 483.99 655.166 483.433 654.951 483.085C654.737 482.733 654.396 482.558 653.931 482.558C653.469 482.558 653.132 482.732 652.92 483.08C652.709 483.428 652.6 483.964 652.593 484.687V486.132C652.593 486.9 652.704 487.468 652.925 487.836C653.15 488.201 653.488 488.383 653.941 488.383C654.387 488.383 654.717 488.21 654.932 487.865C655.15 487.52 655.264 486.977 655.274 486.234V484.755ZM661.792 485.99C661.792 487.048 661.612 487.834 661.25 488.349C660.889 488.863 660.324 489.12 659.556 489.12C658.797 489.12 658.236 488.869 657.871 488.368C657.507 487.864 657.318 487.112 657.305 486.112V484.906C657.305 483.861 657.486 483.085 657.847 482.577C658.208 482.069 658.775 481.815 659.546 481.815C660.311 481.815 660.874 482.061 661.236 482.553C661.597 483.041 661.782 483.796 661.792 484.818V485.99ZM660.889 484.755C660.889 483.99 660.782 483.433 660.567 483.085C660.352 482.733 660.012 482.558 659.546 482.558C659.084 482.558 658.747 482.732 658.535 483.08C658.324 483.428 658.215 483.964 658.208 484.687V486.132C658.208 486.9 658.319 487.468 658.54 487.836C658.765 488.201 659.103 488.383 659.556 488.383C660.002 488.383 660.332 488.21 660.547 487.865C660.765 487.52 660.879 486.977 660.889 486.234V484.755Z" fill="#A3A3A3"/>
<path d="M732.603 489.022H731.695V483.002L729.874 483.671V482.851L732.462 481.879H732.603V489.022ZM736.563 485.028H737.242C737.668 485.022 738.004 484.91 738.248 484.691C738.492 484.473 738.614 484.179 738.614 483.808C738.614 482.974 738.199 482.558 737.369 482.558C736.978 482.558 736.666 482.67 736.431 482.895C736.2 483.116 736.085 483.41 736.085 483.778H735.181C735.181 483.215 735.386 482.748 735.797 482.377C736.21 482.003 736.734 481.815 737.369 481.815C738.039 481.815 738.565 481.993 738.946 482.348C739.327 482.702 739.517 483.196 739.517 483.827C739.517 484.136 739.416 484.436 739.215 484.726C739.016 485.015 738.744 485.232 738.399 485.375C738.79 485.499 739.091 485.704 739.302 485.99C739.517 486.277 739.625 486.627 739.625 487.04C739.625 487.678 739.416 488.184 739 488.559C738.583 488.933 738.041 489.12 737.374 489.12C736.706 489.12 736.163 488.939 735.743 488.578C735.326 488.217 735.118 487.74 735.118 487.147H736.026C736.026 487.522 736.148 487.821 736.392 488.046C736.636 488.271 736.964 488.383 737.374 488.383C737.81 488.383 738.144 488.269 738.375 488.041C738.606 487.813 738.721 487.486 738.721 487.06C738.721 486.646 738.594 486.329 738.341 486.107C738.087 485.886 737.72 485.772 737.242 485.766H736.563V485.028ZM740.928 488.549C740.928 488.393 740.974 488.262 741.065 488.158C741.16 488.054 741.299 488.002 741.485 488.002C741.671 488.002 741.811 488.054 741.905 488.158C742.003 488.262 742.051 488.393 742.051 488.549C742.051 488.699 742.003 488.824 741.905 488.925C741.811 489.026 741.671 489.076 741.485 489.076C741.299 489.076 741.16 489.026 741.065 488.925C740.974 488.824 740.928 488.699 740.928 488.549ZM740.933 484.237C740.933 484.081 740.979 483.951 741.07 483.847C741.164 483.743 741.304 483.69 741.49 483.69C741.675 483.69 741.815 483.743 741.91 483.847C742.007 483.951 742.056 484.081 742.056 484.237C742.056 484.387 742.007 484.512 741.91 484.613C741.815 484.714 741.675 484.765 741.49 484.765C741.304 484.765 741.164 484.714 741.07 484.613C740.979 484.512 740.933 484.387 740.933 484.237ZM747.745 485.99C747.745 487.048 747.564 487.834 747.203 488.349C746.841 488.863 746.277 489.12 745.508 489.12C744.75 489.12 744.188 488.869 743.824 488.368C743.459 487.864 743.271 487.112 743.257 486.112V484.906C743.257 483.861 743.438 483.085 743.799 482.577C744.161 482.069 744.727 481.815 745.499 481.815C746.264 481.815 746.827 482.061 747.188 482.553C747.549 483.041 747.735 483.796 747.745 484.818V485.99ZM746.841 484.755C746.841 483.99 746.734 483.433 746.519 483.085C746.304 482.733 745.964 482.558 745.499 482.558C745.036 482.558 744.7 482.732 744.488 483.08C744.276 483.428 744.167 483.964 744.161 484.687V486.132C744.161 486.9 744.271 487.468 744.493 487.836C744.717 488.201 745.056 488.383 745.508 488.383C745.954 488.383 746.285 488.21 746.5 487.865C746.718 487.52 746.832 486.977 746.841 486.234V484.755ZM753.36 485.99C753.36 487.048 753.179 487.834 752.818 488.349C752.457 488.863 751.892 489.12 751.124 489.12C750.365 489.12 749.804 488.869 749.439 488.368C749.075 487.864 748.886 487.112 748.873 486.112V484.906C748.873 483.861 749.053 483.085 749.415 482.577C749.776 482.069 750.342 481.815 751.114 481.815C751.879 481.815 752.442 482.061 752.803 482.553C753.165 483.041 753.35 483.796 753.36 484.818V485.99ZM752.457 484.755C752.457 483.99 752.349 483.433 752.134 483.085C751.92 482.733 751.579 482.558 751.114 482.558C750.652 482.558 750.315 482.732 750.103 483.08C749.892 483.428 749.783 483.964 749.776 484.687V486.132C749.776 486.9 749.887 487.468 750.108 487.836C750.333 488.201 750.671 488.383 751.124 488.383C751.57 488.383 751.9 488.21 752.115 487.865C752.333 487.52 752.447 486.977 752.457 486.234V484.755Z" fill="#A3A3A3"/>
<path d="M827.527 489.022H826.619V483.002L824.797 483.671V482.851L827.385 481.879H827.527V489.022ZM833.987 486.635H834.973V487.372H833.987V489.022H833.079V487.372H829.841V486.84L833.025 481.913H833.987V486.635ZM830.867 486.635H833.079V483.148L832.971 483.344L830.867 486.635ZM835.852 488.549C835.852 488.393 835.898 488.262 835.989 488.158C836.083 488.054 836.223 488.002 836.409 488.002C836.594 488.002 836.734 488.054 836.829 488.158C836.926 488.262 836.975 488.393 836.975 488.549C836.975 488.699 836.926 488.824 836.829 488.925C836.734 489.026 836.594 489.076 836.409 489.076C836.223 489.076 836.083 489.026 835.989 488.925C835.898 488.824 835.852 488.699 835.852 488.549ZM835.857 484.237C835.857 484.081 835.903 483.951 835.994 483.847C836.088 483.743 836.228 483.69 836.414 483.69C836.599 483.69 836.739 483.743 836.834 483.847C836.931 483.951 836.98 484.081 836.98 484.237C836.98 484.387 836.931 484.512 836.834 484.613C836.739 484.714 836.599 484.765 836.414 484.765C836.228 484.765 836.088 484.714 835.994 484.613C835.903 484.512 835.857 484.387 835.857 484.237ZM842.669 485.99C842.669 487.048 842.488 487.834 842.127 488.349C841.765 488.863 841.2 489.12 840.432 489.12C839.674 489.12 839.112 488.869 838.748 488.368C838.383 487.864 838.194 487.112 838.181 486.112V484.906C838.181 483.861 838.362 483.085 838.723 482.577C839.085 482.069 839.651 481.815 840.422 481.815C841.187 481.815 841.751 482.061 842.112 482.553C842.473 483.041 842.659 483.796 842.669 484.818V485.99ZM841.765 484.755C841.765 483.99 841.658 483.433 841.443 483.085C841.228 482.733 840.888 482.558 840.422 482.558C839.96 482.558 839.623 482.732 839.412 483.08C839.2 483.428 839.091 483.964 839.085 484.687V486.132C839.085 486.9 839.195 487.468 839.417 487.836C839.641 488.201 839.98 488.383 840.432 488.383C840.878 488.383 841.209 488.21 841.423 487.865C841.641 487.52 841.755 486.977 841.765 486.234V484.755ZM848.284 485.99C848.284 487.048 848.103 487.834 847.742 488.349C847.38 488.863 846.816 489.12 846.047 489.12C845.289 489.12 844.727 488.869 844.363 488.368C843.998 487.864 843.809 487.112 843.796 486.112V484.906C843.796 483.861 843.977 483.085 844.338 482.577C844.7 482.069 845.266 481.815 846.038 481.815C846.803 481.815 847.366 482.061 847.727 482.553C848.088 483.041 848.274 483.796 848.284 484.818V485.99ZM847.38 484.755C847.38 483.99 847.273 483.433 847.058 483.085C846.843 482.733 846.503 482.558 846.038 482.558C845.575 482.558 845.238 482.732 845.027 483.08C844.815 483.428 844.706 483.964 844.7 484.687V486.132C844.7 486.9 844.81 487.468 845.032 487.836C845.256 488.201 845.595 488.383 846.047 488.383C846.493 488.383 846.824 488.21 847.039 487.865C847.257 487.52 847.371 486.977 847.38 486.234V484.755Z" fill="#A3A3A3"/>
<path d="M924.848 489.022H923.939V483.002L922.118 483.671V482.851L924.706 481.879H924.848V489.022ZM927.909 485.458L928.27 481.913H931.913V482.748H929.037L928.822 484.687C929.17 484.481 929.566 484.379 930.009 484.379C930.656 484.379 931.171 484.594 931.552 485.023C931.932 485.45 932.123 486.028 932.123 486.757C932.123 487.489 931.924 488.067 931.527 488.49C931.133 488.91 930.582 489.12 929.872 489.12C929.244 489.12 928.731 488.946 928.334 488.598C927.937 488.249 927.71 487.768 927.655 487.152H928.51C928.565 487.559 928.71 487.867 928.944 488.075C929.179 488.28 929.488 488.383 929.872 488.383C930.292 488.383 930.621 488.24 930.858 487.953C931.099 487.667 931.22 487.271 931.22 486.767C931.22 486.291 931.089 485.91 930.829 485.624C930.572 485.334 930.228 485.189 929.799 485.189C929.405 485.189 929.096 485.276 928.871 485.448L928.632 485.644L927.909 485.458ZM933.173 488.549C933.173 488.393 933.218 488.262 933.309 488.158C933.404 488.054 933.544 488.002 933.729 488.002C933.915 488.002 934.055 488.054 934.149 488.158C934.247 488.262 934.296 488.393 934.296 488.549C934.296 488.699 934.247 488.824 934.149 488.925C934.055 489.026 933.915 489.076 933.729 489.076C933.544 489.076 933.404 489.026 933.309 488.925C933.218 488.824 933.173 488.699 933.173 488.549ZM933.178 484.237C933.178 484.081 933.223 483.951 933.314 483.847C933.409 483.743 933.549 483.69 933.734 483.69C933.92 483.69 934.06 483.743 934.154 483.847C934.252 483.951 934.301 484.081 934.301 484.237C934.301 484.387 934.252 484.512 934.154 484.613C934.06 484.714 933.92 484.765 933.734 484.765C933.549 484.765 933.409 484.714 933.314 484.613C933.223 484.512 933.178 484.387 933.178 484.237ZM939.989 485.99C939.989 487.048 939.808 487.834 939.447 488.349C939.086 488.863 938.521 489.12 937.753 489.12C936.994 489.12 936.433 488.869 936.068 488.368C935.704 487.864 935.515 487.112 935.502 486.112V484.906C935.502 483.861 935.682 483.085 936.044 482.577C936.405 482.069 936.972 481.815 937.743 481.815C938.508 481.815 939.071 482.061 939.432 482.553C939.794 483.041 939.979 483.796 939.989 484.818V485.99ZM939.086 484.755C939.086 483.99 938.978 483.433 938.764 483.085C938.549 482.733 938.209 482.558 937.743 482.558C937.281 482.558 936.944 482.732 936.732 483.08C936.521 483.428 936.412 483.964 936.405 484.687V486.132C936.405 486.9 936.516 487.468 936.737 487.836C936.962 488.201 937.3 488.383 937.753 488.383C938.199 488.383 938.529 488.21 938.744 487.865C938.962 487.52 939.076 486.977 939.086 486.234V484.755ZM945.604 485.99C945.604 487.048 945.424 487.834 945.062 488.349C944.701 488.863 944.136 489.12 943.368 489.12C942.61 489.12 942.048 488.869 941.683 488.368C941.319 487.864 941.13 487.112 941.117 486.112V484.906C941.117 483.861 941.298 483.085 941.659 482.577C942.02 482.069 942.587 481.815 943.358 481.815C944.123 481.815 944.686 482.061 945.048 482.553C945.409 483.041 945.595 483.796 945.604 484.818V485.99ZM944.701 484.755C944.701 483.99 944.594 483.433 944.379 483.085C944.164 482.733 943.824 482.558 943.358 482.558C942.896 482.558 942.559 482.732 942.348 483.08C942.136 483.428 942.027 483.964 942.02 484.687V486.132C942.02 486.9 942.131 487.468 942.352 487.836C942.577 488.201 942.916 488.383 943.368 488.383C943.814 488.383 944.144 488.21 944.359 487.865C944.577 487.52 944.691 486.977 944.701 486.234V484.755Z" fill="#A3A3A3"/>
<path d="M64.0742 473.247C64.0742 474.305 63.8935 475.091 63.5322 475.605C63.1709 476.12 62.6061 476.377 61.8379 476.377C61.0794 476.377 60.5179 476.126 60.1533 475.625C59.7887 475.12 59.5999 474.368 59.5869 473.369V472.163C59.5869 471.118 59.7675 470.342 60.1289 469.834C60.4902 469.326 61.0566 469.072 61.8281 469.072C62.5931 469.072 63.1562 469.318 63.5175 469.81C63.8789 470.298 64.0644 471.053 64.0742 472.075V473.247ZM63.1709 472.012C63.1709 471.247 63.0634 470.69 62.8486 470.342C62.6338 469.99 62.2936 469.814 61.8281 469.814C61.3659 469.814 61.0289 469.989 60.8174 470.337C60.6058 470.685 60.4967 471.221 60.4902 471.943V473.389C60.4902 474.157 60.6009 474.725 60.8222 475.093C61.0468 475.457 61.3854 475.64 61.8379 475.64C62.2838 475.64 62.6142 475.467 62.8291 475.122C63.0472 474.777 63.1611 474.233 63.1709 473.491V472.012Z" fill="#A3A3A3"/>
<path d="M56.9697 438.052H56.0615V432.031L54.2402 432.7V431.88L56.8281 430.908H56.9697V438.052ZM64.0742 435.02C64.0742 436.077 63.8935 436.864 63.5322 437.378C63.1709 437.892 62.6061 438.149 61.8379 438.149C61.0794 438.149 60.5179 437.899 60.1533 437.397C59.7887 436.893 59.5999 436.141 59.5869 435.142V433.936C59.5869 432.891 59.7675 432.114 60.1289 431.606C60.4902 431.099 61.0566 430.845 61.8281 430.845C62.5931 430.845 63.1562 431.09 63.5175 431.582C63.8789 432.07 64.0644 432.826 64.0742 433.848V435.02ZM63.1709 433.784C63.1709 433.019 63.0634 432.463 62.8486 432.114C62.6338 431.763 62.2936 431.587 61.8281 431.587C61.3659 431.587 61.0289 431.761 60.8174 432.109C60.6058 432.458 60.4967 432.993 60.4902 433.716V435.161C60.4902 435.929 60.6009 436.497 60.8222 436.865C61.0468 437.23 61.3854 437.412 61.8379 437.412C62.2838 437.412 62.6142 437.24 62.8291 436.895C63.0472 436.549 63.1611 436.006 63.1709 435.264V433.784Z" fill="#A3A3A3"/>
<path d="M58.6591 399.824H54.0009V399.175L56.4619 396.44C56.8265 396.027 57.0771 395.692 57.2138 395.435C57.3538 395.174 57.4238 394.906 57.4238 394.629C57.4238 394.258 57.3115 393.953 57.0869 393.716C56.8623 393.478 56.5628 393.359 56.1884 393.359C55.7392 393.359 55.3893 393.488 55.1386 393.745C54.8912 393.999 54.7675 394.354 54.7675 394.81H53.8642C53.8642 394.155 54.0742 393.626 54.4941 393.223C54.9173 392.819 55.4821 392.617 56.1884 392.617C56.8493 392.617 57.3717 392.791 57.7558 393.14C58.1399 393.485 58.332 393.945 58.332 394.521C58.332 395.221 57.886 396.055 56.9941 397.021L55.0898 399.087H58.6591V399.824ZM64.0742 396.792C64.0742 397.85 63.8935 398.636 63.5322 399.15C63.1709 399.665 62.6061 399.922 61.8379 399.922C61.0794 399.922 60.5179 399.671 60.1533 399.17C59.7887 398.665 59.5999 397.913 59.5869 396.914V395.708C59.5869 394.663 59.7675 393.887 60.1289 393.379C60.4902 392.871 61.0566 392.617 61.8281 392.617C62.5931 392.617 63.1562 392.863 63.5175 393.354C63.8789 393.843 64.0644 394.598 64.0742 395.62V396.792ZM63.1709 395.557C63.1709 394.792 63.0634 394.235 62.8486 393.887C62.6338 393.535 62.2936 393.359 61.8281 393.359C61.3659 393.359 61.0289 393.534 60.8174 393.882C60.6058 394.23 60.4967 394.766 60.4902 395.488V396.934C60.4902 397.702 60.6009 398.27 60.8222 398.638C61.0468 399.002 61.3854 399.185 61.8379 399.185C62.2838 399.185 62.6142 399.012 62.8291 398.667C63.0472 398.322 63.1611 397.778 63.1709 397.036V395.557Z" fill="#A3A3A3"/>
<path d="M55.3144 357.602H55.9931C56.4196 357.595 56.7549 357.483 56.999 357.265C57.2431 357.047 57.3652 356.752 57.3652 356.381C57.3652 355.548 56.9502 355.131 56.1201 355.131C55.7295 355.131 55.417 355.243 55.1826 355.468C54.9515 355.689 54.8359 355.984 54.8359 356.352H53.9326C53.9326 355.788 54.1377 355.321 54.5478 354.95C54.9612 354.576 55.4853 354.389 56.1201 354.389C56.7907 354.389 57.3164 354.566 57.6972 354.921C58.0781 355.276 58.2685 355.769 58.2685 356.4C58.2685 356.71 58.1676 357.009 57.9658 357.299C57.7672 357.589 57.4954 357.805 57.1504 357.948C57.541 358.072 57.8421 358.277 58.0537 358.563C58.2685 358.85 58.3759 359.2 58.3759 359.613C58.3759 360.251 58.1676 360.757 57.7509 361.132C57.3343 361.506 56.7923 361.693 56.125 361.693C55.4576 361.693 54.914 361.513 54.4941 361.151C54.0774 360.79 53.8691 360.313 53.8691 359.721H54.7773C54.7773 360.095 54.8994 360.395 55.1435 360.619C55.3877 360.844 55.7148 360.956 56.125 360.956C56.5612 360.956 56.8948 360.842 57.1259 360.614C57.3571 360.386 57.4726 360.059 57.4726 359.633C57.4726 359.219 57.3457 358.902 57.0918 358.681C56.8379 358.459 56.4716 358.345 55.9931 358.339H55.3144V357.602ZM64.0742 358.563C64.0742 359.621 63.8935 360.408 63.5322 360.922C63.1709 361.436 62.6061 361.693 61.8379 361.693C61.0794 361.693 60.5179 361.443 60.1533 360.941C59.7887 360.437 59.5999 359.685 59.5869 358.686V357.479C59.5869 356.435 59.7675 355.658 60.1289 355.15C60.4902 354.643 61.0566 354.389 61.8281 354.389C62.5931 354.389 63.1562 354.634 63.5175 355.126C63.8789 355.614 64.0644 356.369 64.0742 357.392V358.563ZM63.1709 357.328C63.1709 356.563 63.0634 356.007 62.8486 355.658C62.6338 355.307 62.2936 355.131 61.8281 355.131C61.3659 355.131 61.0289 355.305 60.8174 355.653C60.6058 356.002 60.4967 356.537 60.4902 357.26V358.705C60.4902 359.473 60.6009 360.041 60.8222 360.409C61.0468 360.774 61.3854 360.956 61.8379 360.956C62.2838 360.956 62.6142 360.784 62.8291 360.438C63.0472 360.093 63.1611 359.55 63.1709 358.808V357.328Z" fill="#A3A3A3"/>
<path d="M57.8144 320.979H58.8007V321.717H57.8144V323.367H56.9062V321.717H53.6689V321.185L56.8525 316.258H57.8144V320.979ZM54.6943 320.979H56.9062V317.493L56.7988 317.688L54.6943 320.979ZM64.0742 320.335C64.0742 321.393 63.8935 322.179 63.5322 322.693C63.1709 323.208 62.6061 323.465 61.8379 323.465C61.0794 323.465 60.5179 323.214 60.1533 322.713C59.7887 322.208 59.5999 321.456 59.5869 320.457V319.251C59.5869 318.206 59.7675 317.43 60.1289 316.922C60.4902 316.414 61.0566 316.16 61.8281 316.16C62.5931 316.16 63.1562 316.406 63.5175 316.897C63.8789 317.386 64.0644 318.141 64.0742 319.163V320.335ZM63.1709 319.1C63.1709 318.335 63.0634 317.778 62.8486 317.43C62.6338 317.078 62.2936 316.902 61.8281 316.902C61.3659 316.902 61.0289 317.076 60.8174 317.425C60.6058 317.773 60.4967 318.309 60.4902 319.031V320.477C60.4902 321.245 60.6009 321.813 60.8222 322.181C61.0468 322.545 61.3854 322.728 61.8379 322.728C62.2838 322.728 62.6142 322.555 62.8291 322.21C63.0472 321.865 63.1611 321.321 63.1709 320.579V319.1Z" fill="#A3A3A3"/>
<path d="M54.416 281.575L54.7773 278.03H58.4199V278.865H55.5439L55.3291 280.804C55.6774 280.599 56.0729 280.496 56.5156 280.496C57.1634 280.496 57.6777 280.711 58.0586 281.141C58.4394 281.567 58.6299 282.145 58.6299 282.874C58.6299 283.606 58.4313 284.184 58.0341 284.607C57.6403 285.027 57.0885 285.237 56.3789 285.237C55.7506 285.237 55.2379 285.063 54.8408 284.715C54.4437 284.367 54.2174 283.885 54.1621 283.27H55.0166C55.0719 283.676 55.2168 283.984 55.4511 284.192C55.6855 284.397 55.9948 284.5 56.3789 284.5C56.7988 284.5 57.1276 284.357 57.3652 284.07C57.6061 283.784 57.7265 283.388 57.7265 282.884C57.7265 282.409 57.5963 282.028 57.3359 281.741C57.0787 281.451 56.7353 281.307 56.3056 281.307C55.9118 281.307 55.6025 281.393 55.3779 281.565L55.1386 281.761L54.416 281.575ZM64.0742 282.107C64.0742 283.165 63.8935 283.951 63.5322 284.466C63.1709 284.98 62.6061 285.237 61.8379 285.237C61.0794 285.237 60.5179 284.987 60.1533 284.485C59.7887 283.981 59.5999 283.229 59.5869 282.229V281.023C59.5869 279.979 59.7675 279.202 60.1289 278.694C60.4902 278.187 61.0566 277.933 61.8281 277.933C62.5931 277.933 63.1562 278.178 63.5175 278.67C63.8789 279.158 64.0644 279.913 64.0742 280.936V282.107ZM63.1709 280.872C63.1709 280.107 63.0634 279.55 62.8486 279.202C62.6338 278.851 62.2936 278.675 61.8281 278.675C61.3659 278.675 61.0289 278.849 60.8174 279.197C60.6058 279.546 60.4967 280.081 60.4902 280.804V282.249C60.4902 283.017 60.6009 283.585 60.8222 283.953C61.0468 284.318 61.3854 284.5 61.8379 284.5C62.2838 284.5 62.6142 284.327 62.8291 283.982C63.0472 283.637 63.1611 283.094 63.1709 282.352V280.872Z" fill="#A3A3A3"/>
<path d="M57.5459 239.797V240.563H57.3799C56.6767 240.576 56.1168 240.785 55.7002 241.188C55.2835 241.592 55.0426 242.16 54.9775 242.893C55.3519 242.463 55.8629 242.248 56.5107 242.248C57.1292 242.248 57.6224 242.466 57.9902 242.902C58.3613 243.339 58.5468 243.902 58.5468 244.592C58.5468 245.324 58.3466 245.91 57.9463 246.35C57.5491 246.789 57.0153 247.009 56.3447 247.009C55.6644 247.009 55.1126 246.748 54.6894 246.228C54.2662 245.703 54.0547 245.03 54.0547 244.206V243.859C54.0547 242.551 54.333 241.551 54.8896 240.861C55.4495 240.168 56.2812 239.813 57.3847 239.797H57.5459ZM56.3593 243C56.0501 243 55.7653 243.093 55.5049 243.278C55.2444 243.464 55.0638 243.697 54.9629 243.977V244.309C54.9629 244.895 55.0947 245.367 55.3584 245.725C55.622 246.083 55.9508 246.262 56.3447 246.262C56.7516 246.262 57.0706 246.112 57.3017 245.812C57.5361 245.513 57.6533 245.121 57.6533 244.636C57.6533 244.147 57.5345 243.754 57.2968 243.454C57.0625 243.151 56.75 243 56.3593 243ZM64.0742 243.879C64.0742 244.937 63.8935 245.723 63.5322 246.237C63.1709 246.752 62.6061 247.009 61.8379 247.009C61.0794 247.009 60.5179 246.758 60.1533 246.257C59.7887 245.752 59.5999 245 59.5869 244.001V242.795C59.5869 241.75 59.7675 240.974 60.1289 240.466C60.4902 239.958 61.0566 239.704 61.8281 239.704C62.5931 239.704 63.1562 239.95 63.5175 240.441C63.8789 240.93 64.0644 241.685 64.0742 242.707V243.879ZM63.1709 242.644C63.1709 241.879 63.0634 241.322 62.8486 240.974C62.6338 240.622 62.2936 240.446 61.8281 240.446C61.3659 240.446 61.0289 240.62 60.8174 240.969C60.6058 241.317 60.4967 241.853 60.4902 242.575V244.021C60.4902 244.789 60.6009 245.357 60.8222 245.725C61.0468 246.089 61.3854 246.271 61.8379 246.271C62.2838 246.271 62.6142 246.099 62.8291 245.754C63.0472 245.409 63.1611 244.865 63.1709 244.123V242.644Z" fill="#A3A3A3"/>
<path d="M58.5908 202.083L55.6465 208.685H54.6992L57.6338 202.317H53.7861V201.575H58.5908V202.083ZM64.0742 205.652C64.0742 206.71 63.8935 207.496 63.5322 208.011C63.1709 208.525 62.6061 208.782 61.8379 208.782C61.0794 208.782 60.5179 208.532 60.1533 208.03C59.7887 207.526 59.5999 206.774 59.5869 205.774V204.568C59.5869 203.523 59.7675 202.747 60.1289 202.239C60.4902 201.731 61.0566 201.478 61.8281 201.478C62.5931 201.478 63.1562 201.723 63.5175 202.215C63.8789 202.703 64.0644 203.458 64.0742 204.48V205.652ZM63.1709 204.417C63.1709 203.652 63.0634 203.095 62.8486 202.747C62.6338 202.396 62.2936 202.22 61.8281 202.22C61.3659 202.22 61.0289 202.394 60.8174 202.742C60.6058 203.09 60.4967 203.626 60.4902 204.349V205.794C60.4902 206.562 60.6009 207.13 60.8222 207.498C61.0468 207.863 61.3854 208.045 61.8379 208.045C62.2838 208.045 62.6142 207.872 62.8291 207.527C63.0472 207.182 63.1611 206.639 63.1709 205.896V204.417Z" fill="#A3A3A3"/>
<path d="M58.3125 165.202C58.3125 165.557 58.2181 165.873 58.0293 166.149C57.8437 166.426 57.5914 166.643 57.2724 166.799C57.6435 166.958 57.9365 167.191 58.1513 167.497C58.3694 167.803 58.4785 168.15 58.4785 168.537C58.4785 169.152 58.2701 169.642 57.8535 170.007C57.4401 170.371 56.8948 170.554 56.2177 170.554C55.5341 170.554 54.9856 170.371 54.5722 170.007C54.1621 169.639 53.957 169.149 53.957 168.537C53.957 168.153 54.0612 167.806 54.2695 167.497C54.4811 167.188 54.7724 166.953 55.1435 166.794C54.8278 166.638 54.5787 166.421 54.3965 166.145C54.2142 165.868 54.123 165.554 54.123 165.202C54.123 164.603 54.3151 164.128 54.6992 163.776C55.0833 163.425 55.5895 163.249 56.2177 163.249C56.8427 163.249 57.3473 163.425 57.7314 163.776C58.1188 164.128 58.3125 164.603 58.3125 165.202ZM57.5752 168.518C57.5752 168.12 57.4482 167.797 57.1943 167.546C56.9437 167.295 56.6149 167.17 56.208 167.17C55.8011 167.17 55.4739 167.294 55.2265 167.541C54.9824 167.788 54.8603 168.114 54.8603 168.518C54.8603 168.921 54.9791 169.239 55.2168 169.47C55.4576 169.701 55.7913 169.816 56.2177 169.816C56.6409 169.816 56.9729 169.701 57.2138 169.47C57.4547 169.235 57.5752 168.918 57.5752 168.518ZM56.2177 163.991C55.8629 163.991 55.5748 164.102 55.3535 164.323C55.1354 164.541 55.0263 164.839 55.0263 165.217C55.0263 165.578 55.1338 165.871 55.3486 166.096C55.5667 166.317 55.8564 166.428 56.2177 166.428C56.5791 166.428 56.8672 166.317 57.082 166.096C57.3001 165.871 57.4091 165.578 57.4091 165.217C57.4091 164.855 57.2968 164.561 57.0722 164.333C56.8476 164.105 56.5628 163.991 56.2177 163.991ZM64.0742 167.424C64.0742 168.482 63.8935 169.268 63.5322 169.782C63.1709 170.297 62.6061 170.554 61.8379 170.554C61.0794 170.554 60.5179 170.303 60.1533 169.802C59.7887 169.297 59.5999 168.545 59.5869 167.546V166.34C59.5869 165.295 59.7675 164.519 60.1289 164.011C60.4902 163.503 61.0566 163.249 61.8281 163.249C62.5931 163.249 63.1562 163.495 63.5175 163.986C63.8789 164.475 64.0644 165.23 64.0742 166.252V167.424ZM63.1709 166.188C63.1709 165.424 63.0634 164.867 62.8486 164.519C62.6338 164.167 62.2936 163.991 61.8281 163.991C61.3659 163.991 61.0289 164.165 60.8174 164.514C60.6058 164.862 60.4967 165.397 60.4902 166.12V167.565C60.4902 168.334 60.6009 168.902 60.8222 169.27C61.0468 169.634 61.3854 169.816 61.8379 169.816C62.2838 169.816 62.6142 169.644 62.8291 169.299C63.0472 168.954 63.1611 168.41 63.1709 167.668V166.188Z" fill="#A3A3A3"/>
<path d="M57.4629 129.103C57.2741 129.328 57.0478 129.508 56.7841 129.645C56.5237 129.782 56.2373 129.85 55.9248 129.85C55.5146 129.85 55.1565 129.749 54.8506 129.547C54.5478 129.346 54.3134 129.062 54.1474 128.698C53.9814 128.33 53.8984 127.925 53.8984 127.482C53.8984 127.007 53.9879 126.579 54.167 126.198C54.3493 125.817 54.6064 125.526 54.9384 125.324C55.2705 125.122 55.6578 125.021 56.1006 125.021C56.8037 125.021 57.3571 125.285 57.7607 125.812C58.1676 126.336 58.3711 127.052 58.3711 127.96V128.224C58.3711 129.608 58.0976 130.618 57.5507 131.256C57.0039 131.891 56.1787 132.217 55.0752 132.233H54.8994V131.471H55.0898C55.8353 131.458 56.4082 131.264 56.8086 130.89C57.209 130.513 57.4271 129.917 57.4629 129.103ZM56.0713 129.103C56.374 129.103 56.6523 129.01 56.9062 128.825C57.1634 128.639 57.3506 128.41 57.4677 128.136V127.775C57.4677 127.182 57.3392 126.701 57.082 126.33C56.8248 125.958 56.4993 125.773 56.1054 125.773C55.7083 125.773 55.3893 125.926 55.1484 126.232C54.9075 126.535 54.7871 126.935 54.7871 127.433C54.7871 127.918 54.9026 128.319 55.1338 128.634C55.3681 128.947 55.6806 129.103 56.0713 129.103ZM64.0742 129.196C64.0742 130.254 63.8935 131.04 63.5322 131.554C63.1709 132.069 62.6061 132.326 61.8379 132.326C61.0794 132.326 60.5179 132.075 60.1533 131.574C59.7887 131.069 59.5999 130.317 59.5869 129.318V128.112C59.5869 127.067 59.7675 126.291 60.1289 125.783C60.4902 125.275 61.0566 125.021 61.8281 125.021C62.5931 125.021 63.1562 125.267 63.5175 125.758C63.8789 126.247 64.0644 127.002 64.0742 128.024V129.196ZM63.1709 127.96C63.1709 127.195 63.0634 126.639 62.8486 126.291C62.6338 125.939 62.2936 125.763 61.8281 125.763C61.3659 125.763 61.0289 125.937 60.8174 126.286C60.6058 126.634 60.4967 127.169 60.4902 127.892V129.337C60.4902 130.106 60.6009 130.674 60.8222 131.042C61.0468 131.406 61.3854 131.588 61.8379 131.588C62.2838 131.588 62.6142 131.416 62.8291 131.071C63.0472 130.726 63.1611 130.182 63.1709 129.44V127.96Z" fill="#A3A3A3"/>
<path d="M56.9697 94H56.0615V87.9795L54.2402 88.6484V87.8281L56.8281 86.8564H56.9697V94ZM64.0742 90.9678C64.0742 92.0257 63.8935 92.8118 63.5322 93.3262C63.1709 93.8405 62.6061 94.0977 61.8379 94.0977C61.0794 94.0977 60.5179 93.847 60.1533 93.3457C59.7887 92.8411 59.5999 92.0892 59.5869 91.0898V89.8838C59.5869 88.8389 59.7675 88.0625 60.1289 87.5547C60.4902 87.0469 61.0566 86.793 61.8281 86.793C62.5931 86.793 63.1562 87.0387 63.5175 87.5303C63.8789 88.0186 64.0644 88.7738 64.0742 89.7959V90.9678ZM63.1709 89.7324C63.1709 88.9674 63.0634 88.4108 62.8486 88.0625C62.6338 87.7109 62.2936 87.5352 61.8281 87.5352C61.3659 87.5352 61.0289 87.7093 60.8174 88.0576C60.6058 88.4059 60.4967 88.9414 60.4902 89.6641V91.1094C60.4902 91.8776 60.6009 92.4456 60.8222 92.8135C61.0468 93.1781 61.3854 93.3604 61.8379 93.3604C62.2838 93.3604 62.6142 93.1878 62.8291 92.8428C63.0472 92.4977 63.1611 91.9541 63.1709 91.2119V89.7324ZM64.0742 100.968C64.0742 102.026 63.8935 102.812 63.5322 103.326C63.1709 103.84 62.6061 104.098 61.8379 104.098C61.0794 104.098 60.5179 103.847 60.1533 103.346C59.7887 102.841 59.5999 102.089 59.5869 101.09V99.8838C59.5869 98.8389 59.7675 98.0625 60.1289 97.5547C60.4902 97.0469 61.0566 96.793 61.8281 96.793C62.5931 96.793 63.1562 97.0387 63.5175 97.5303C63.8789 98.0186 64.0644 98.7738 64.0742 99.7959V100.968ZM63.1709 99.7324C63.1709 98.9674 63.0634 98.4108 62.8486 98.0625C62.6338 97.7109 62.2936 97.5352 61.8281 97.5352C61.3659 97.5352 61.0289 97.7093 60.8174 98.0576C60.6058 98.4059 60.4967 98.9414 60.4902 99.6641V101.109C60.4902 101.878 60.6009 102.446 60.8222 102.813C61.0468 103.178 61.3854 103.36 61.8379 103.36C62.2838 103.36 62.6142 103.188 62.8291 102.843C63.0472 102.498 63.1611 101.954 63.1709 101.212V99.7324Z" fill="#A3A3A3"/>
<path d="M74.4292 90.3442V472.624" stroke="#F0F0F0"/>
<path d="M74.4292 472.624H971.063" stroke="#F0F0F0"/>
<g filter="url(#filter0_d)">
<path d="M74.4292 472.624C74.4292 472.624 97.9218 418.757 121.414 418.757C144.907 418.757 144.907 380.529 168.4 380.529C191.892 380.529 191.892 331.007 215.385 331.007C238.877 331.007 238.877 288.434 262.37 288.434C285.863 288.434 285.863 361.415 310.334 361.415C333.827 361.415 333.827 284.959 357.319 284.959C380.812 284.959 380.812 231.093 404.304 231.093C427.797 231.093 427.797 181.57 451.29 181.57C474.782 181.57 481.634 261.501 505.127 261.501C529.598 261.501 522.746 116.409 546.239 116.409C569.732 116.409 574.626 166.366 598.118 166.366C621.611 166.366 627.484 148.989 650.977 148.989C674.469 148.989 678.874 326.228 702.367 326.228C725.859 326.228 719.986 361.415 743.479 361.415C767.95 361.415 758.651 231.093 782.144 231.093C805.636 231.093 805.636 407.462 829.129 407.462C852.622 407.462 867.794 431.886 891.286 431.886C914.779 431.886 908.906 442.215 932.399 442.215C955.891 442.215 970.085 472.624 970.085 472.624" stroke="#09E9AD" stroke-width="3"/>
</g>
<ellipse cx="74.4292" cy="472.624" rx="3.91543" ry="3.47527" fill="#A3A3A3"/>
<ellipse cx="970.085" cy="472.624" rx="3.91543" ry="3.47527" fill="#A3A3A3"/>
<ellipse cx="119.799" cy="418.771" rx="8.17337" ry="7.77583" fill="#48CD3B"/>
<ellipse cx="666.981" cy="184.452" rx="8.17337" ry="7.77583" fill="#DB5A68"/>
<ellipse cx="828.35" cy="60.6612" rx="8.3499" ry="8.66119" fill="#48CD3B"/>
<ellipse cx="828.35" cy="94.6612" rx="8.3499" ry="8.66119" fill="#DB5A68"/>
<path d="M850.65 68V53.7812H855.299C856.842 53.7812 858.001 54.1003 858.775 54.7383C859.557 55.3763 859.947 56.3203 859.947 57.5703C859.947 58.2344 859.758 58.8236 859.381 59.3379C859.003 59.8457 858.489 60.2396 857.838 60.5195C858.606 60.7344 859.212 61.1445 859.654 61.75C860.104 62.349 860.328 63.0651 860.328 63.8984C860.328 65.1745 859.915 66.1771 859.088 66.9062C858.261 67.6354 857.092 68 855.582 68H850.65ZM852.525 61.3496V66.4668H855.621C856.493 66.4668 857.18 66.2422 857.682 65.793C858.189 65.3372 858.443 64.7122 858.443 63.918C858.443 62.2057 857.512 61.3496 855.65 61.3496H852.525ZM852.525 59.8457H855.357C856.178 59.8457 856.832 59.6406 857.32 59.2305C857.815 58.8203 858.062 58.2637 858.062 57.5605C858.062 56.7793 857.835 56.2129 857.379 55.8613C856.923 55.5033 856.23 55.3242 855.299 55.3242H852.525V59.8457ZM869.352 66.9551C868.648 67.7819 867.617 68.1953 866.256 68.1953C865.13 68.1953 864.27 67.8698 863.678 67.2188C863.092 66.5612 862.796 65.5911 862.789 64.3086V57.4336H864.596V64.2598C864.596 65.8613 865.247 66.6621 866.549 66.6621C867.929 66.6621 868.847 66.1478 869.303 65.1191V57.4336H871.109V68H869.391L869.352 66.9551ZM877.32 65.3535L879.781 57.4336H881.715L877.467 69.6309C876.809 71.3887 875.764 72.2676 874.332 72.2676L873.99 72.2383L873.316 72.1113V70.6465L873.805 70.6855C874.417 70.6855 874.892 70.5618 875.23 70.3145C875.576 70.0671 875.859 69.6146 876.08 68.957L876.48 67.8828L872.711 57.4336H874.684L877.32 65.3535Z" fill="#48CD3B"/>
<path d="M853.84 93.6621C852.232 93.1999 851.06 92.6335 850.324 91.9629C849.595 91.2858 849.23 90.4525 849.23 89.4629C849.23 88.3431 849.676 87.4186 850.568 86.6895C851.467 85.9538 852.632 85.5859 854.064 85.5859C855.041 85.5859 855.91 85.7747 856.672 86.1523C857.44 86.5299 858.033 87.0508 858.449 87.7148C858.872 88.3789 859.084 89.1048 859.084 89.8926H857.199C857.199 89.0332 856.926 88.3594 856.379 87.8711C855.832 87.3763 855.061 87.1289 854.064 87.1289C853.14 87.1289 852.417 87.334 851.896 87.7441C851.382 88.1478 851.125 88.7109 851.125 89.4336C851.125 90.013 851.369 90.5046 851.857 90.9082C852.352 91.3053 853.189 91.6699 854.367 92.002C855.552 92.334 856.477 92.7018 857.141 93.1055C857.811 93.5026 858.306 93.9681 858.625 94.502C858.951 95.0358 859.113 95.6641 859.113 96.3867C859.113 97.5391 858.664 98.4635 857.766 99.1602C856.867 99.8503 855.666 100.195 854.162 100.195C853.186 100.195 852.274 100.01 851.428 99.6387C850.581 99.2611 849.927 98.7467 849.465 98.0957C849.009 97.4447 848.781 96.7057 848.781 95.8789H850.666C850.666 96.7383 850.982 97.4186 851.613 97.9199C852.251 98.4147 853.101 98.6621 854.162 98.6621C855.152 98.6621 855.91 98.4603 856.438 98.0566C856.965 97.653 857.229 97.1029 857.229 96.4062C857.229 95.7096 856.984 95.1725 856.496 94.7949C856.008 94.4108 855.122 94.0332 853.84 93.6621ZM865.627 100.195C864.195 100.195 863.029 99.7266 862.131 98.7891C861.232 97.8451 860.783 96.5853 860.783 95.0098V94.6777C860.783 93.6296 860.982 92.6953 861.379 91.875C861.783 91.0482 862.342 90.4036 863.059 89.9414C863.781 89.4727 864.562 89.2383 865.402 89.2383C866.776 89.2383 867.844 89.6908 868.605 90.5957C869.367 91.5007 869.748 92.7962 869.748 94.4824V95.2344H862.59C862.616 96.276 862.919 97.1191 863.498 97.7637C864.084 98.4017 864.826 98.7207 865.725 98.7207C866.363 98.7207 866.903 98.5905 867.346 98.3301C867.788 98.0697 868.176 97.7246 868.508 97.2949L869.611 98.1543C868.726 99.515 867.398 100.195 865.627 100.195ZM865.402 90.7227C864.673 90.7227 864.061 90.9896 863.566 91.5234C863.072 92.0508 862.766 92.793 862.648 93.75H867.941V93.6133C867.889 92.6953 867.642 91.9857 867.199 91.4844C866.757 90.9766 866.158 90.7227 865.402 90.7227ZM873.811 100H872.004V85H873.811V100ZM878.674 100H876.867V85H878.674V100Z" fill="#DB5A68"/>
<defs>
<filter id="filter0_d" x="58.0547" y="103.909" width="928.389" height="388.35" filterUnits="userSpaceOnUse" color-interpolation-filters="sRGB">
<feFlood flood-opacity="0" result="BackgroundImageFix"/>
<feColorMatrix in="SourceAlpha" type="matrix" values="0 0 0 0 0 0 0 0 0 0 0 0 0 0 0 0 0 0 127 0"/>
<feOffset dy="4"/>
<feGaussianBlur stdDeviation="7.5"/>
<feColorMatrix type="matrix" values="0 0 0 0 0 0 0 0 0 0.811765 0 0 0 0 0.596078 0 0 0 1 0"/>
<feBlend mode="normal" in2="BackgroundImageFix" result="effect1_dropShadow"/>
<feBlend mode="normal" in="SourceGraphic" in2="effect1_dropShadow" result="shape"/>
</filter>
</defs>
</svg>
