<svg width="844" height="578" viewBox="0 0 844 578" fill="none" xmlns="http://www.w3.org/2000/svg">
<rect x="166" width="533" height="578" rx="20" fill="#2D3555"/>
<rect x="256" y="218" width="587.032" height="115" rx="10" fill="#3E476C"/>
<path d="M307.585 272H297.565V269H300.955V254H297.565V251H307.585V254H304.195V269H307.585V272ZM318.941 255.92C320.361 255.92 321.461 256.21 322.241 256.79C323.021 257.37 323.561 258.15 323.861 259.13C324.181 260.11 324.341 261.2 324.341 262.4V272H321.251V262.61C321.251 261.85 321.151 261.17 320.951 260.57C320.751 259.97 320.411 259.5 319.931 259.16C319.451 258.82 318.781 258.68 317.921 258.74C317.121 258.74 316.411 258.91 315.791 259.25C315.171 259.59 314.681 260.04 314.321 260.6C313.961 261.16 313.781 261.78 313.781 262.46V272H310.691V256.25H313.781V258.74C314.261 258 314.961 257.35 315.881 256.79C316.801 256.21 317.821 255.92 318.941 255.92ZM336.423 260.39C335.863 259.83 335.223 259.37 334.503 259.01C333.803 258.65 333.153 258.47 332.553 258.47C332.133 258.47 331.713 258.52 331.293 258.62C330.893 258.72 330.553 258.91 330.273 259.19C329.993 259.45 329.853 259.84 329.853 260.36C329.873 261.08 330.193 261.59 330.813 261.89C331.453 262.19 332.243 262.46 333.183 262.7C334.003 262.92 334.803 263.2 335.583 263.54C336.363 263.86 337.003 264.34 337.503 264.98C338.023 265.6 338.283 266.48 338.283 267.62C338.283 268.6 338.003 269.44 337.443 270.14C336.903 270.84 336.193 271.38 335.313 271.76C334.453 272.12 333.543 272.3 332.583 272.3C331.443 272.3 330.313 272.1 329.193 271.7C328.093 271.28 327.153 270.57 326.373 269.57L328.473 267.77C329.013 268.39 329.623 268.88 330.303 269.24C331.003 269.58 331.853 269.75 332.853 269.75C333.233 269.75 333.613 269.69 333.993 269.57C334.373 269.43 334.693 269.22 334.953 268.94C335.233 268.64 335.373 268.24 335.373 267.74C335.373 267.26 335.223 266.89 334.923 266.63C334.643 266.35 334.263 266.13 333.783 265.97C333.303 265.79 332.773 265.63 332.193 265.49C331.333 265.25 330.483 264.96 329.643 264.62C328.823 264.26 328.133 263.76 327.573 263.12C327.033 262.46 326.763 261.57 326.763 260.45C326.763 259.51 327.023 258.71 327.543 258.05C328.083 257.37 328.783 256.85 329.643 256.49C330.503 256.11 331.423 255.92 332.403 255.92C333.343 255.92 334.363 256.12 335.463 256.52C336.563 256.92 337.473 257.56 338.193 258.44L336.423 260.39ZM345.528 272H342.438V259.25H339.168V256.25H342.438V252.23H345.528V256.25H349.188V259.25H345.528V272ZM365.326 256.25V272H362.206V269.57C361.726 270.23 361.016 270.85 360.076 271.43C359.136 272.01 358.046 272.3 356.806 272.3C355.486 272.3 354.276 271.95 353.176 271.25C352.096 270.55 351.236 269.58 350.596 268.34C349.956 267.1 349.636 265.68 349.636 264.08C349.636 262.48 349.966 261.07 350.626 259.85C351.286 258.61 352.196 257.65 353.356 256.97C354.516 256.27 355.836 255.92 357.316 255.92C358.416 255.92 359.376 256.16 360.196 256.64C361.036 257.12 361.706 257.68 362.206 258.32V256.25H365.326ZM357.526 269.45C358.486 269.45 359.326 269.22 360.046 268.76C360.766 268.28 361.326 267.64 361.726 266.84C362.126 266.02 362.326 265.1 362.326 264.08C362.326 263.08 362.126 262.18 361.726 261.38C361.326 260.58 360.766 259.95 360.046 259.49C359.326 259.01 358.486 258.77 357.526 258.77C356.606 258.77 355.786 259 355.066 259.46C354.346 259.92 353.786 260.55 353.386 261.35C352.986 262.15 352.786 263.06 352.786 264.08C352.786 265.1 352.986 266.02 353.386 266.84C353.786 267.64 354.346 268.28 355.066 268.76C355.786 269.22 356.606 269.45 357.526 269.45ZM376.69 255.92C378.11 255.92 379.21 256.21 379.99 256.79C380.77 257.37 381.31 258.15 381.61 259.13C381.93 260.11 382.09 261.2 382.09 262.4V272H379V262.61C379 261.85 378.9 261.17 378.7 260.57C378.5 259.97 378.16 259.5 377.68 259.16C377.2 258.82 376.53 258.68 375.67 258.74C374.87 258.74 374.16 258.91 373.54 259.25C372.92 259.59 372.43 260.04 372.07 260.6C371.71 261.16 371.53 261.78 371.53 262.46V272H368.44V256.25H371.53V258.74C372.01 258 372.71 257.35 373.63 256.79C374.55 256.21 375.57 255.92 376.69 255.92ZM387.062 264.11C387.062 265.15 387.292 266.08 387.752 266.9C388.232 267.7 388.852 268.34 389.612 268.82C390.392 269.28 391.222 269.51 392.102 269.51C393.102 269.51 393.972 269.25 394.712 268.73C395.452 268.21 396.052 267.67 396.512 267.11L398.222 269.21C397.842 269.75 397.322 270.26 396.662 270.74C396.002 271.2 395.252 271.58 394.412 271.88C393.572 272.16 392.692 272.3 391.772 272.3C390.332 272.3 389.032 271.94 387.872 271.22C386.712 270.5 385.792 269.52 385.112 268.28C384.452 267.04 384.122 265.65 384.122 264.11C384.122 262.55 384.452 261.16 385.112 259.94C385.792 258.7 386.712 257.72 387.872 257C389.032 256.28 390.332 255.92 391.772 255.92C393.232 255.92 394.532 256.22 395.672 256.82C396.812 257.4 397.662 258.16 398.222 259.1L396.512 261.2C396.052 260.52 395.392 259.94 394.532 259.46C393.692 258.96 392.872 258.71 392.072 258.71C391.132 258.71 390.282 258.95 389.522 259.43C388.762 259.89 388.162 260.53 387.722 261.35C387.282 262.15 387.062 263.07 387.062 264.11ZM413.466 269.93H413.436C412.796 270.55 411.916 271.1 410.796 271.58C409.676 272.06 408.506 272.3 407.286 272.3C405.646 272.3 404.196 271.96 402.936 271.28C401.696 270.58 400.726 269.63 400.026 268.43C399.326 267.21 398.976 265.83 398.976 264.29C398.976 262.53 399.346 261.03 400.086 259.79C400.826 258.53 401.806 257.57 403.026 256.91C404.246 256.23 405.576 255.89 407.016 255.89C408.336 255.89 409.536 256.22 410.616 256.88C411.696 257.52 412.556 258.41 413.196 259.55C413.836 260.69 414.156 262.02 414.156 263.54L414.126 264.86H402.066C402.246 266.28 402.826 267.41 403.806 268.25C404.806 269.07 406.066 269.48 407.586 269.48C408.686 269.48 409.576 269.28 410.256 268.88C410.936 268.46 411.496 268.06 411.936 267.68L413.466 269.93ZM407.016 258.74C405.836 258.74 404.806 259.02 403.926 259.58C403.046 260.12 402.466 261.06 402.186 262.4H411.006V262.19C410.946 261.51 410.716 260.91 410.316 260.39C409.936 259.87 409.456 259.47 408.876 259.19C408.296 258.89 407.676 258.74 407.016 258.74ZM436.843 268.88V272H424.153L423.163 269.54L429.583 262.31C430.403 261.39 431.153 260.47 431.833 259.55C432.513 258.63 432.853 257.69 432.853 256.73C432.853 255.73 432.563 254.98 431.983 254.48C431.403 253.96 430.643 253.7 429.703 253.7C429.243 253.7 428.733 253.84 428.173 254.12C427.613 254.4 427.083 254.84 426.583 255.44C426.083 256.04 425.683 256.83 425.383 257.81L422.893 256.25C423.433 254.39 424.363 253 425.683 252.08C427.023 251.16 428.493 250.7 430.093 250.7C431.233 250.7 432.263 250.94 433.183 251.42C434.103 251.88 434.833 252.54 435.373 253.4C435.913 254.26 436.183 255.29 436.183 256.49C436.183 257.87 435.763 259.24 434.923 260.6C434.103 261.94 433.093 263.27 431.893 264.59L427.963 268.88H436.843Z" fill="white"/>
<g filter="url(#filter0_d)">
<path d="M310.069 296.128V298H302.221V285.4H304.165V296.128H310.069ZM313.05 286.498C312.63 286.498 312.318 286.39 312.114 286.174C311.91 285.958 311.808 285.676 311.808 285.328C311.808 285.028 311.91 284.758 312.114 284.518C312.318 284.278 312.63 284.158 313.05 284.158C313.47 284.158 313.782 284.266 313.986 284.482C314.19 284.698 314.292 284.98 314.292 285.328C314.292 285.628 314.19 285.898 313.986 286.138C313.782 286.378 313.47 286.498 313.05 286.498ZM314.004 298H312.15V288.55H314.004V298ZM317.196 288.55L319.95 295.3L322.812 288.55H324.72L320.526 298H319.194L315.198 288.55H317.196ZM333.551 296.758H333.533C333.149 297.13 332.621 297.46 331.949 297.748C331.277 298.036 330.575 298.18 329.843 298.18C328.859 298.18 327.989 297.976 327.233 297.568C326.489 297.148 325.907 296.578 325.487 295.858C325.067 295.126 324.857 294.298 324.857 293.374C324.857 292.318 325.079 291.418 325.523 290.674C325.967 289.918 326.555 289.342 327.287 288.946C328.019 288.538 328.817 288.334 329.681 288.334C330.473 288.334 331.193 288.532 331.841 288.928C332.489 289.312 333.005 289.846 333.389 290.53C333.773 291.214 333.965 292.012 333.965 292.924L333.947 293.716H326.711C326.819 294.568 327.167 295.246 327.755 295.75C328.355 296.242 329.111 296.488 330.023 296.488C330.683 296.488 331.217 296.368 331.625 296.128C332.033 295.876 332.369 295.636 332.633 295.408L333.551 296.758ZM329.681 290.044C328.973 290.044 328.355 290.212 327.827 290.548C327.299 290.872 326.951 291.436 326.783 292.24H332.075V292.114C332.039 291.706 331.901 291.346 331.661 291.034C331.433 290.722 331.145 290.482 330.797 290.314C330.449 290.134 330.077 290.044 329.681 290.044Z" fill="#FC0000"/>
<path d="M342.446 298V287.272H338.918V285.4H348.026V287.272H344.39V298H342.446ZM353.455 290.548C353.335 290.488 353.185 290.44 353.005 290.404C352.837 290.356 352.657 290.332 352.465 290.332C352.081 290.332 351.703 290.434 351.331 290.638C350.959 290.83 350.647 291.112 350.395 291.484C350.155 291.844 350.035 292.276 350.035 292.78V298H348.163V288.55H350.035V290.332C350.299 289.756 350.695 289.282 351.223 288.91C351.763 288.538 352.327 288.352 352.915 288.352C353.359 288.352 353.701 288.412 353.941 288.532L353.455 290.548ZM363.101 288.55V298H361.229V296.542C360.941 296.938 360.515 297.31 359.951 297.658C359.387 298.006 358.733 298.18 357.989 298.18C357.197 298.18 356.471 297.97 355.811 297.55C355.163 297.13 354.647 296.548 354.263 295.804C353.879 295.06 353.687 294.208 353.687 293.248C353.687 292.288 353.885 291.442 354.281 290.71C354.677 289.966 355.223 289.39 355.919 288.982C356.615 288.562 357.407 288.352 358.295 288.352C358.955 288.352 359.531 288.496 360.023 288.784C360.527 289.072 360.929 289.408 361.229 289.792V288.55H363.101ZM358.421 296.47C358.997 296.47 359.501 296.332 359.933 296.056C360.365 295.768 360.701 295.384 360.941 294.904C361.181 294.412 361.301 293.86 361.301 293.248C361.301 292.648 361.181 292.108 360.941 291.628C360.701 291.148 360.365 290.77 359.933 290.494C359.501 290.206 358.997 290.062 358.421 290.062C357.869 290.062 357.377 290.2 356.945 290.476C356.513 290.752 356.177 291.13 355.937 291.61C355.697 292.09 355.577 292.636 355.577 293.248C355.577 293.86 355.697 294.412 355.937 294.904C356.177 295.384 356.513 295.768 356.945 296.056C357.377 296.332 357.869 296.47 358.421 296.47ZM373.825 284.68V298H371.971V296.668C371.695 297.04 371.287 297.388 370.747 297.712C370.207 298.024 369.595 298.18 368.911 298.18C368.059 298.18 367.291 297.97 366.607 297.55C365.923 297.13 365.383 296.548 364.987 295.804C364.591 295.06 364.393 294.214 364.393 293.266C364.393 292.306 364.591 291.46 364.987 290.728C365.383 289.984 365.917 289.402 366.589 288.982C367.261 288.562 368.017 288.352 368.857 288.352C369.529 288.352 370.135 288.49 370.675 288.766C371.227 289.042 371.659 289.366 371.971 289.738V284.68H373.825ZM369.163 296.578C369.739 296.578 370.243 296.434 370.675 296.146C371.107 295.858 371.443 295.462 371.683 294.958C371.923 294.454 372.043 293.89 372.043 293.266C372.043 292.63 371.923 292.066 371.683 291.574C371.443 291.07 371.107 290.674 370.675 290.386C370.243 290.098 369.739 289.954 369.163 289.954C368.599 289.954 368.101 290.098 367.669 290.386C367.237 290.674 366.895 291.07 366.643 291.574C366.403 292.066 366.283 292.63 366.283 293.266C366.283 293.89 366.403 294.454 366.643 294.958C366.895 295.462 367.237 295.858 367.669 296.146C368.101 296.434 368.599 296.578 369.163 296.578ZM376.9 286.498C376.48 286.498 376.168 286.39 375.964 286.174C375.76 285.958 375.658 285.676 375.658 285.328C375.658 285.028 375.76 284.758 375.964 284.518C376.168 284.278 376.48 284.158 376.9 284.158C377.32 284.158 377.632 284.266 377.836 284.482C378.04 284.698 378.142 284.98 378.142 285.328C378.142 285.628 378.04 285.898 377.836 286.138C377.632 286.378 377.32 286.498 376.9 286.498ZM377.854 298H376V288.55H377.854V298ZM384.897 288.352C385.749 288.352 386.409 288.526 386.877 288.874C387.345 289.222 387.669 289.69 387.849 290.278C388.041 290.866 388.137 291.52 388.137 292.24V298H386.283V292.366C386.283 291.91 386.223 291.502 386.103 291.142C385.983 290.782 385.779 290.5 385.491 290.296C385.203 290.092 384.801 290.008 384.285 290.044C383.805 290.044 383.379 290.146 383.007 290.35C382.635 290.554 382.341 290.824 382.125 291.16C381.909 291.496 381.801 291.868 381.801 292.276V298H379.947V288.55H381.801V290.044C382.089 289.6 382.509 289.21 383.061 288.874C383.613 288.526 384.225 288.352 384.897 288.352ZM391.228 299.566C391.588 299.842 392.038 300.064 392.578 300.232C393.118 300.4 393.646 300.484 394.162 300.484C395.134 300.484 395.878 300.244 396.394 299.764C396.91 299.296 397.168 298.588 397.168 297.64V296.488C397 296.776 396.76 297.052 396.448 297.316C396.136 297.568 395.77 297.778 395.35 297.946C394.93 298.102 394.492 298.18 394.036 298.18C393.16 298.18 392.368 297.97 391.66 297.55C390.952 297.13 390.388 296.548 389.968 295.804C389.56 295.06 389.356 294.214 389.356 293.266C389.356 292.306 389.56 291.46 389.968 290.728C390.376 289.984 390.928 289.402 391.624 288.982C392.332 288.562 393.118 288.352 393.982 288.352C394.702 288.352 395.338 288.514 395.89 288.838C396.454 289.15 396.88 289.492 397.168 289.864V288.55H399.022V297.424C399.022 298.552 398.794 299.458 398.338 300.142C397.894 300.838 397.3 301.342 396.556 301.654C395.824 301.978 395.026 302.14 394.162 302.14C393.49 302.14 392.818 302.032 392.146 301.816C391.486 301.612 390.952 301.342 390.544 301.006L391.228 299.566ZM394.234 290.044C393.658 290.044 393.142 290.188 392.686 290.476C392.242 290.752 391.888 291.136 391.624 291.628C391.372 292.108 391.246 292.654 391.246 293.266C391.246 293.878 391.372 294.424 391.624 294.904C391.888 295.384 392.242 295.768 392.686 296.056C393.142 296.332 393.658 296.47 394.234 296.47C394.834 296.47 395.356 296.332 395.8 296.056C396.256 295.78 396.61 295.402 396.862 294.922C397.114 294.43 397.24 293.878 397.24 293.266C397.24 292.642 397.114 292.09 396.862 291.61C396.61 291.13 396.256 290.752 395.8 290.476C395.356 290.188 394.834 290.044 394.234 290.044Z" fill="#C4C4C4"/>
</g>
<g filter="url(#filter1_d)">
<path d="M802.468 253.283C808.684 257.678 812.73 264.865 812.73 273C812.73 286.359 801.797 297.189 788.309 297.219C774.84 297.248 763.809 286.379 763.789 273.039C763.779 264.904 767.825 257.697 774.031 253.293C775.186 252.482 776.794 252.824 777.485 254.045L779.044 256.789C779.626 257.814 779.35 259.113 778.393 259.816C774.298 262.824 771.683 267.59 771.683 272.99C771.673 282.004 779.034 289.406 788.26 289.406C797.298 289.406 804.895 282.16 804.836 272.893C804.807 267.834 802.399 262.951 798.117 259.807C797.16 259.104 796.893 257.805 797.475 256.789L799.034 254.045C799.725 252.834 801.323 252.473 802.468 253.283ZM792.206 273.781V250.344C792.206 249.045 791.151 248 789.838 248H786.681C785.368 248 784.313 249.045 784.313 250.344V273.781C784.313 275.08 785.368 276.125 786.681 276.125H789.838C791.151 276.125 792.206 275.08 792.206 273.781Z" fill="#CF4B00"/>
</g>
<rect y="43" width="587.032" height="115" rx="10" fill="#3E476C"/>
<path d="M51.5849 97H41.5649V94H44.9549V79H41.5649V76H51.5849V79H48.1949V94H51.5849V97ZM62.9411 80.92C64.3611 80.92 65.4611 81.21 66.2411 81.79C67.0211 82.37 67.5611 83.15 67.8611 84.13C68.1811 85.11 68.3411 86.2 68.3411 87.4V97H65.2511V87.61C65.2511 86.85 65.1511 86.17 64.9511 85.57C64.7511 84.97 64.4111 84.5 63.9311 84.16C63.4511 83.82 62.7811 83.68 61.9211 83.74C61.1211 83.74 60.4111 83.91 59.7911 84.25C59.1711 84.59 58.6811 85.04 58.3211 85.6C57.9611 86.16 57.7811 86.78 57.7811 87.46V97H54.6911V81.25H57.7811V83.74C58.2611 83 58.9611 82.35 59.8811 81.79C60.8011 81.21 61.8211 80.92 62.9411 80.92ZM80.4229 85.39C79.8629 84.83 79.2229 84.37 78.5029 84.01C77.8029 83.65 77.1529 83.47 76.5529 83.47C76.1329 83.47 75.7129 83.52 75.2929 83.62C74.8929 83.72 74.5529 83.91 74.2729 84.19C73.9929 84.45 73.8529 84.84 73.8529 85.36C73.8729 86.08 74.1929 86.59 74.8129 86.89C75.4529 87.19 76.2429 87.46 77.1829 87.7C78.0029 87.92 78.8029 88.2 79.5829 88.54C80.3629 88.86 81.0029 89.34 81.5029 89.98C82.0229 90.6 82.2829 91.48 82.2829 92.62C82.2829 93.6 82.0029 94.44 81.4429 95.14C80.9029 95.84 80.1929 96.38 79.3129 96.76C78.4529 97.12 77.5429 97.3 76.5829 97.3C75.4429 97.3 74.3129 97.1 73.1929 96.7C72.0929 96.28 71.1529 95.57 70.3729 94.57L72.4729 92.77C73.0129 93.39 73.6229 93.88 74.3029 94.24C75.0029 94.58 75.8529 94.75 76.8529 94.75C77.2329 94.75 77.6129 94.69 77.9929 94.57C78.3729 94.43 78.6929 94.22 78.9529 93.94C79.2329 93.64 79.3729 93.24 79.3729 92.74C79.3729 92.26 79.2229 91.89 78.9229 91.63C78.6429 91.35 78.2629 91.13 77.7829 90.97C77.3029 90.79 76.7729 90.63 76.1929 90.49C75.3329 90.25 74.4829 89.96 73.6429 89.62C72.8229 89.26 72.1329 88.76 71.5729 88.12C71.0329 87.46 70.7629 86.57 70.7629 85.45C70.7629 84.51 71.0229 83.71 71.5429 83.05C72.0829 82.37 72.7829 81.85 73.6429 81.49C74.5029 81.11 75.4229 80.92 76.4029 80.92C77.3429 80.92 78.3629 81.12 79.4629 81.52C80.5629 81.92 81.4729 82.56 82.1929 83.44L80.4229 85.39ZM89.5283 97H86.4383V84.25H83.1683V81.25H86.4383V77.23H89.5283V81.25H93.1883V84.25H89.5283V97ZM109.326 81.25V97H106.206V94.57C105.726 95.23 105.016 95.85 104.076 96.43C103.136 97.01 102.046 97.3 100.806 97.3C99.4855 97.3 98.2755 96.95 97.1755 96.25C96.0955 95.55 95.2355 94.58 94.5955 93.34C93.9555 92.1 93.6355 90.68 93.6355 89.08C93.6355 87.48 93.9655 86.07 94.6255 84.85C95.2855 83.61 96.1955 82.65 97.3555 81.97C98.5155 81.27 99.8355 80.92 101.316 80.92C102.416 80.92 103.376 81.16 104.196 81.64C105.036 82.12 105.706 82.68 106.206 83.32V81.25H109.326ZM101.526 94.45C102.486 94.45 103.326 94.22 104.046 93.76C104.766 93.28 105.326 92.64 105.726 91.84C106.126 91.02 106.326 90.1 106.326 89.08C106.326 88.08 106.126 87.18 105.726 86.38C105.326 85.58 104.766 84.95 104.046 84.49C103.326 84.01 102.486 83.77 101.526 83.77C100.606 83.77 99.7855 84 99.0655 84.46C98.3455 84.92 97.7855 85.55 97.3855 86.35C96.9855 87.15 96.7855 88.06 96.7855 89.08C96.7855 90.1 96.9855 91.02 97.3855 91.84C97.7855 92.64 98.3455 93.28 99.0655 93.76C99.7855 94.22 100.606 94.45 101.526 94.45ZM120.69 80.92C122.11 80.92 123.21 81.21 123.99 81.79C124.77 82.37 125.31 83.15 125.61 84.13C125.93 85.11 126.09 86.2 126.09 87.4V97H123V87.61C123 86.85 122.9 86.17 122.7 85.57C122.5 84.97 122.16 84.5 121.68 84.16C121.2 83.82 120.53 83.68 119.67 83.74C118.87 83.74 118.16 83.91 117.54 84.25C116.92 84.59 116.43 85.04 116.07 85.6C115.71 86.16 115.53 86.78 115.53 87.46V97H112.44V81.25H115.53V83.74C116.01 83 116.71 82.35 117.63 81.79C118.55 81.21 119.57 80.92 120.69 80.92ZM131.062 89.11C131.062 90.15 131.292 91.08 131.752 91.9C132.232 92.7 132.852 93.34 133.612 93.82C134.392 94.28 135.222 94.51 136.102 94.51C137.102 94.51 137.972 94.25 138.712 93.73C139.452 93.21 140.052 92.67 140.512 92.11L142.222 94.21C141.842 94.75 141.322 95.26 140.662 95.74C140.002 96.2 139.252 96.58 138.412 96.88C137.572 97.16 136.692 97.3 135.772 97.3C134.332 97.3 133.032 96.94 131.872 96.22C130.712 95.5 129.792 94.52 129.112 93.28C128.452 92.04 128.122 90.65 128.122 89.11C128.122 87.55 128.452 86.16 129.112 84.94C129.792 83.7 130.712 82.72 131.872 82C133.032 81.28 134.332 80.92 135.772 80.92C137.232 80.92 138.532 81.22 139.672 81.82C140.812 82.4 141.662 83.16 142.222 84.1L140.512 86.2C140.052 85.52 139.392 84.94 138.532 84.46C137.692 83.96 136.872 83.71 136.072 83.71C135.132 83.71 134.282 83.95 133.522 84.43C132.762 84.89 132.162 85.53 131.722 86.35C131.282 87.15 131.062 88.07 131.062 89.11ZM157.466 94.93H157.436C156.796 95.55 155.916 96.1 154.796 96.58C153.676 97.06 152.506 97.3 151.286 97.3C149.646 97.3 148.196 96.96 146.936 96.28C145.696 95.58 144.726 94.63 144.026 93.43C143.326 92.21 142.976 90.83 142.976 89.29C142.976 87.53 143.346 86.03 144.086 84.79C144.826 83.53 145.806 82.57 147.026 81.91C148.246 81.23 149.576 80.89 151.016 80.89C152.336 80.89 153.536 81.22 154.616 81.88C155.696 82.52 156.556 83.41 157.196 84.55C157.836 85.69 158.156 87.02 158.156 88.54L158.126 89.86H146.066C146.246 91.28 146.826 92.41 147.806 93.25C148.806 94.07 150.066 94.48 151.586 94.48C152.686 94.48 153.576 94.28 154.256 93.88C154.936 93.46 155.496 93.06 155.936 92.68L157.466 94.93ZM151.016 83.74C149.836 83.74 148.806 84.02 147.926 84.58C147.046 85.12 146.466 86.06 146.186 87.4H155.006V87.19C154.946 86.51 154.716 85.91 154.316 85.39C153.936 84.87 153.456 84.47 152.876 84.19C152.296 83.89 151.676 83.74 151.016 83.74ZM178.563 97H168.543V93.88H171.873V79.93L168.843 81.52L167.973 78.7L173.583 75.7H175.143V93.88H178.563V97Z" fill="white"/>
<path d="M51.3508 110.4C52.0228 110.4 52.6408 110.574 53.2048 110.922C53.7688 111.258 54.2188 111.72 54.5548 112.308C54.8908 112.884 55.0588 113.538 55.0588 114.27C55.0588 114.99 54.8908 115.65 54.5548 116.25C54.2188 116.838 53.7688 117.306 53.2048 117.654C52.6408 118.002 52.0228 118.176 51.3508 118.176H48.1648V123H46.2208V110.4H51.3508ZM51.3148 116.304C51.6388 116.304 51.9328 116.214 52.1968 116.034C52.4608 115.842 52.6708 115.596 52.8268 115.296C52.9948 114.984 53.0788 114.642 53.0788 114.27C53.0788 113.706 52.9048 113.232 52.5568 112.848C52.2088 112.464 51.7948 112.272 51.3148 112.272H48.1648V116.304H51.3148ZM65.0672 113.55V123H63.1952V121.542C62.9072 121.938 62.4812 122.31 61.9172 122.658C61.3532 123.006 60.6992 123.18 59.9552 123.18C59.1632 123.18 58.4372 122.97 57.7772 122.55C57.1292 122.13 56.6132 121.548 56.2292 120.804C55.8452 120.06 55.6532 119.208 55.6532 118.248C55.6532 117.288 55.8512 116.442 56.2472 115.71C56.6432 114.966 57.1892 114.39 57.8852 113.982C58.5812 113.562 59.3732 113.352 60.2612 113.352C60.9212 113.352 61.4972 113.496 61.9892 113.784C62.4932 114.072 62.8952 114.408 63.1952 114.792V113.55H65.0672ZM60.3872 121.47C60.9632 121.47 61.4672 121.332 61.8992 121.056C62.3312 120.768 62.6672 120.384 62.9072 119.904C63.1472 119.412 63.2672 118.86 63.2672 118.248C63.2672 117.648 63.1472 117.108 62.9072 116.628C62.6672 116.148 62.3312 115.77 61.8992 115.494C61.4672 115.206 60.9632 115.062 60.3872 115.062C59.8352 115.062 59.3432 115.2 58.9112 115.476C58.4792 115.752 58.1432 116.13 57.9032 116.61C57.6632 117.09 57.5432 117.636 57.5432 118.248C57.5432 118.86 57.6632 119.412 57.9032 119.904C58.1432 120.384 58.4792 120.768 58.9112 121.056C59.3432 121.332 59.8352 121.47 60.3872 121.47ZM71.8678 113.388C72.7078 113.388 73.4578 113.598 74.1178 114.018C74.7898 114.426 75.3178 114.996 75.7018 115.728C76.0858 116.46 76.2778 117.306 76.2778 118.266C76.2778 119.214 76.0858 120.06 75.7018 120.804C75.3178 121.536 74.7958 122.112 74.1358 122.532C73.4758 122.952 72.7378 123.162 71.9218 123.162C71.2498 123.162 70.6378 123.018 70.0858 122.73C69.5458 122.442 69.1198 122.112 68.8078 121.74V126.96H66.9358V113.532H68.8078V114.918C69.0838 114.522 69.4978 114.168 70.0498 113.856C70.6018 113.544 71.2078 113.388 71.8678 113.388ZM71.6158 115.098C71.0518 115.098 70.5478 115.236 70.1038 115.512C69.6718 115.788 69.3298 116.166 69.0778 116.646C68.8378 117.114 68.7178 117.654 68.7178 118.266C68.7178 118.866 68.8378 119.406 69.0778 119.886C69.3298 120.366 69.6718 120.75 70.1038 121.038C70.5478 121.314 71.0518 121.452 71.6158 121.452C72.1798 121.452 72.6778 121.314 73.1098 121.038C73.5418 120.75 73.8778 120.366 74.1178 119.886C74.3698 119.406 74.4958 118.866 74.4958 118.266C74.4958 117.654 74.3698 117.114 74.1178 116.646C73.8778 116.166 73.5418 115.788 73.1098 115.512C72.6778 115.236 72.1798 115.098 71.6158 115.098ZM85.6893 121.758H85.6713C85.2873 122.13 84.7593 122.46 84.0873 122.748C83.4153 123.036 82.7133 123.18 81.9813 123.18C80.9973 123.18 80.1273 122.976 79.3713 122.568C78.6273 122.148 78.0453 121.578 77.6253 120.858C77.2053 120.126 76.9953 119.298 76.9953 118.374C76.9953 117.318 77.2173 116.418 77.6613 115.674C78.1053 114.918 78.6933 114.342 79.4253 113.946C80.1573 113.538 80.9553 113.334 81.8193 113.334C82.6113 113.334 83.3313 113.532 83.9793 113.928C84.6273 114.312 85.1433 114.846 85.5273 115.53C85.9113 116.214 86.1033 117.012 86.1033 117.924L86.0853 118.716H78.8493C78.9573 119.568 79.3053 120.246 79.8933 120.75C80.4933 121.242 81.2493 121.488 82.1613 121.488C82.8213 121.488 83.3553 121.368 83.7633 121.128C84.1713 120.876 84.5073 120.636 84.7713 120.408L85.6893 121.758ZM81.8193 115.044C81.1113 115.044 80.4933 115.212 79.9653 115.548C79.4373 115.872 79.0893 116.436 78.9213 117.24H84.2133V117.114C84.1773 116.706 84.0393 116.346 83.7993 116.034C83.5713 115.722 83.2833 115.482 82.9353 115.314C82.5873 115.134 82.2153 115.044 81.8193 115.044ZM92.6902 115.548C92.5702 115.488 92.4202 115.44 92.2402 115.404C92.0722 115.356 91.8922 115.332 91.7002 115.332C91.3162 115.332 90.9382 115.434 90.5662 115.638C90.1942 115.83 89.8822 116.112 89.6302 116.484C89.3902 116.844 89.2702 117.276 89.2702 117.78V123H87.3982V113.55H89.2702V115.332C89.5342 114.756 89.9302 114.282 90.4582 113.91C90.9982 113.538 91.5622 113.352 92.1502 113.352C92.5942 113.352 92.9362 113.412 93.1762 113.532L92.6902 115.548ZM101.125 123V112.272H97.5969V110.4H106.705V112.272H103.069V123H101.125ZM112.134 115.548C112.014 115.488 111.864 115.44 111.684 115.404C111.516 115.356 111.336 115.332 111.144 115.332C110.76 115.332 110.382 115.434 110.01 115.638C109.638 115.83 109.326 116.112 109.074 116.484C108.834 116.844 108.714 117.276 108.714 117.78V123H106.842V113.55H108.714V115.332C108.978 114.756 109.374 114.282 109.902 113.91C110.442 113.538 111.006 113.352 111.594 113.352C112.038 113.352 112.38 113.412 112.62 113.532L112.134 115.548ZM121.779 113.55V123H119.907V121.542C119.619 121.938 119.193 122.31 118.629 122.658C118.065 123.006 117.411 123.18 116.667 123.18C115.875 123.18 115.149 122.97 114.489 122.55C113.841 122.13 113.325 121.548 112.941 120.804C112.557 120.06 112.365 119.208 112.365 118.248C112.365 117.288 112.563 116.442 112.959 115.71C113.355 114.966 113.901 114.39 114.597 113.982C115.293 113.562 116.085 113.352 116.973 113.352C117.633 113.352 118.209 113.496 118.701 113.784C119.205 114.072 119.607 114.408 119.907 114.792V113.55H121.779ZM117.099 121.47C117.675 121.47 118.179 121.332 118.611 121.056C119.043 120.768 119.379 120.384 119.619 119.904C119.859 119.412 119.979 118.86 119.979 118.248C119.979 117.648 119.859 117.108 119.619 116.628C119.379 116.148 119.043 115.77 118.611 115.494C118.179 115.206 117.675 115.062 117.099 115.062C116.547 115.062 116.055 115.2 115.623 115.476C115.191 115.752 114.855 116.13 114.615 116.61C114.375 117.09 114.255 117.636 114.255 118.248C114.255 118.86 114.375 119.412 114.615 119.904C114.855 120.384 115.191 120.768 115.623 121.056C116.055 121.332 116.547 121.47 117.099 121.47ZM132.504 109.68V123H130.65V121.668C130.374 122.04 129.966 122.388 129.426 122.712C128.886 123.024 128.274 123.18 127.59 123.18C126.738 123.18 125.97 122.97 125.286 122.55C124.602 122.13 124.062 121.548 123.666 120.804C123.27 120.06 123.072 119.214 123.072 118.266C123.072 117.306 123.27 116.46 123.666 115.728C124.062 114.984 124.596 114.402 125.268 113.982C125.94 113.562 126.696 113.352 127.536 113.352C128.208 113.352 128.814 113.49 129.354 113.766C129.906 114.042 130.338 114.366 130.65 114.738V109.68H132.504ZM127.842 121.578C128.418 121.578 128.922 121.434 129.354 121.146C129.786 120.858 130.122 120.462 130.362 119.958C130.602 119.454 130.722 118.89 130.722 118.266C130.722 117.63 130.602 117.066 130.362 116.574C130.122 116.07 129.786 115.674 129.354 115.386C128.922 115.098 128.418 114.954 127.842 114.954C127.278 114.954 126.78 115.098 126.348 115.386C125.916 115.674 125.574 116.07 125.322 116.574C125.082 117.066 124.962 117.63 124.962 118.266C124.962 118.89 125.082 119.454 125.322 119.958C125.574 120.462 125.916 120.858 126.348 121.146C126.78 121.434 127.278 121.578 127.842 121.578ZM135.578 111.498C135.158 111.498 134.846 111.39 134.642 111.174C134.438 110.958 134.336 110.676 134.336 110.328C134.336 110.028 134.438 109.758 134.642 109.518C134.846 109.278 135.158 109.158 135.578 109.158C135.998 109.158 136.31 109.266 136.514 109.482C136.718 109.698 136.82 109.98 136.82 110.328C136.82 110.628 136.718 110.898 136.514 111.138C136.31 111.378 135.998 111.498 135.578 111.498ZM136.532 123H134.678V113.55H136.532V123ZM143.576 113.352C144.428 113.352 145.088 113.526 145.556 113.874C146.024 114.222 146.348 114.69 146.528 115.278C146.72 115.866 146.816 116.52 146.816 117.24V123H144.962V117.366C144.962 116.91 144.902 116.502 144.782 116.142C144.662 115.782 144.458 115.5 144.17 115.296C143.882 115.092 143.48 115.008 142.964 115.044C142.484 115.044 142.058 115.146 141.686 115.35C141.314 115.554 141.02 115.824 140.804 116.16C140.588 116.496 140.48 116.868 140.48 117.276V123H138.626V113.55H140.48V115.044C140.768 114.6 141.188 114.21 141.74 113.874C142.292 113.526 142.904 113.352 143.576 113.352ZM149.907 124.566C150.267 124.842 150.717 125.064 151.257 125.232C151.797 125.4 152.325 125.484 152.841 125.484C153.813 125.484 154.557 125.244 155.073 124.764C155.589 124.296 155.847 123.588 155.847 122.64V121.488C155.679 121.776 155.439 122.052 155.127 122.316C154.815 122.568 154.449 122.778 154.029 122.946C153.609 123.102 153.171 123.18 152.715 123.18C151.839 123.18 151.047 122.97 150.339 122.55C149.631 122.13 149.067 121.548 148.647 120.804C148.239 120.06 148.035 119.214 148.035 118.266C148.035 117.306 148.239 116.46 148.647 115.728C149.055 114.984 149.607 114.402 150.303 113.982C151.011 113.562 151.797 113.352 152.661 113.352C153.381 113.352 154.017 113.514 154.569 113.838C155.133 114.15 155.559 114.492 155.847 114.864V113.55H157.701V122.424C157.701 123.552 157.473 124.458 157.017 125.142C156.573 125.838 155.979 126.342 155.235 126.654C154.503 126.978 153.705 127.14 152.841 127.14C152.169 127.14 151.497 127.032 150.825 126.816C150.165 126.612 149.631 126.342 149.223 126.006L149.907 124.566ZM152.913 115.044C152.337 115.044 151.821 115.188 151.365 115.476C150.921 115.752 150.567 116.136 150.303 116.628C150.051 117.108 149.925 117.654 149.925 118.266C149.925 118.878 150.051 119.424 150.303 119.904C150.567 120.384 150.921 120.768 151.365 121.056C151.821 121.332 152.337 121.47 152.913 121.47C153.513 121.47 154.035 121.332 154.479 121.056C154.935 120.78 155.289 120.402 155.541 119.922C155.793 119.43 155.919 118.878 155.919 118.266C155.919 117.642 155.793 117.09 155.541 116.61C155.289 116.13 154.935 115.752 154.479 115.476C154.035 115.188 153.513 115.044 152.913 115.044Z" fill="#C4C4C4"/>
<g filter="url(#filter2_d)">
<path d="M546.468 77.2832C552.684 81.6777 556.73 88.8652 556.73 97C556.73 110.359 545.797 121.189 532.309 121.219C518.84 121.248 507.809 110.379 507.789 97.0391C507.779 88.9043 511.825 81.6973 518.031 77.293C519.186 76.4824 520.794 76.8242 521.485 78.0449L523.044 80.7891C523.626 81.8145 523.35 83.1133 522.393 83.8164C518.298 86.8242 515.683 91.5898 515.683 96.9902C515.673 106.004 523.034 113.406 532.26 113.406C541.298 113.406 548.895 106.16 548.836 96.8926C548.807 91.834 546.399 86.9512 542.117 83.8066C541.16 83.1035 540.893 81.8047 541.475 80.7891L543.034 78.0449C543.725 76.834 545.323 76.4727 546.468 77.2832ZM536.206 97.7812V74.3438C536.206 73.0449 535.151 72 533.838 72H530.681C529.368 72 528.313 73.0449 528.313 74.3438V97.7812C528.313 99.0801 529.368 100.125 530.681 100.125H533.838C535.151 100.125 536.206 99.0801 536.206 97.7812Z" fill="#00CF98"/>
</g>
<rect x="81" y="407" width="587.032" height="115" rx="10" fill="#3E476C"/>
<path d="M132.585 461H122.565V458H125.955V443H122.565V440H132.585V443H129.195V458H132.585V461ZM143.941 444.92C145.361 444.92 146.461 445.21 147.241 445.79C148.021 446.37 148.561 447.15 148.861 448.13C149.181 449.11 149.341 450.2 149.341 451.4V461H146.251V451.61C146.251 450.85 146.151 450.17 145.951 449.57C145.751 448.97 145.411 448.5 144.931 448.16C144.451 447.82 143.781 447.68 142.921 447.74C142.121 447.74 141.411 447.91 140.791 448.25C140.171 448.59 139.681 449.04 139.321 449.6C138.961 450.16 138.781 450.78 138.781 451.46V461H135.691V445.25H138.781V447.74C139.261 447 139.961 446.35 140.881 445.79C141.801 445.21 142.821 444.92 143.941 444.92ZM161.423 449.39C160.863 448.83 160.223 448.37 159.503 448.01C158.803 447.65 158.153 447.47 157.553 447.47C157.133 447.47 156.713 447.52 156.293 447.62C155.893 447.72 155.553 447.91 155.273 448.19C154.993 448.45 154.853 448.84 154.853 449.36C154.873 450.08 155.193 450.59 155.813 450.89C156.453 451.19 157.243 451.46 158.183 451.7C159.003 451.92 159.803 452.2 160.583 452.54C161.363 452.86 162.003 453.34 162.503 453.98C163.023 454.6 163.283 455.48 163.283 456.62C163.283 457.6 163.003 458.44 162.443 459.14C161.903 459.84 161.193 460.38 160.313 460.76C159.453 461.12 158.543 461.3 157.583 461.3C156.443 461.3 155.313 461.1 154.193 460.7C153.093 460.28 152.153 459.57 151.373 458.57L153.473 456.77C154.013 457.39 154.623 457.88 155.303 458.24C156.003 458.58 156.853 458.75 157.853 458.75C158.233 458.75 158.613 458.69 158.993 458.57C159.373 458.43 159.693 458.22 159.953 457.94C160.233 457.64 160.373 457.24 160.373 456.74C160.373 456.26 160.223 455.89 159.923 455.63C159.643 455.35 159.263 455.13 158.783 454.97C158.303 454.79 157.773 454.63 157.193 454.49C156.333 454.25 155.483 453.96 154.643 453.62C153.823 453.26 153.133 452.76 152.573 452.12C152.033 451.46 151.763 450.57 151.763 449.45C151.763 448.51 152.023 447.71 152.543 447.05C153.083 446.37 153.783 445.85 154.643 445.49C155.503 445.11 156.423 444.92 157.403 444.92C158.343 444.92 159.363 445.12 160.463 445.52C161.563 445.92 162.473 446.56 163.193 447.44L161.423 449.39ZM170.528 461H167.438V448.25H164.168V445.25H167.438V441.23H170.528V445.25H174.188V448.25H170.528V461ZM190.326 445.25V461H187.206V458.57C186.726 459.23 186.016 459.85 185.076 460.43C184.136 461.01 183.046 461.3 181.806 461.3C180.486 461.3 179.276 460.95 178.176 460.25C177.096 459.55 176.236 458.58 175.596 457.34C174.956 456.1 174.636 454.68 174.636 453.08C174.636 451.48 174.966 450.07 175.626 448.85C176.286 447.61 177.196 446.65 178.356 445.97C179.516 445.27 180.836 444.92 182.316 444.92C183.416 444.92 184.376 445.16 185.196 445.64C186.036 446.12 186.706 446.68 187.206 447.32V445.25H190.326ZM182.526 458.45C183.486 458.45 184.326 458.22 185.046 457.76C185.766 457.28 186.326 456.64 186.726 455.84C187.126 455.02 187.326 454.1 187.326 453.08C187.326 452.08 187.126 451.18 186.726 450.38C186.326 449.58 185.766 448.95 185.046 448.49C184.326 448.01 183.486 447.77 182.526 447.77C181.606 447.77 180.786 448 180.066 448.46C179.346 448.92 178.786 449.55 178.386 450.35C177.986 451.15 177.786 452.06 177.786 453.08C177.786 454.1 177.986 455.02 178.386 455.84C178.786 456.64 179.346 457.28 180.066 457.76C180.786 458.22 181.606 458.45 182.526 458.45ZM201.69 444.92C203.11 444.92 204.21 445.21 204.99 445.79C205.77 446.37 206.31 447.15 206.61 448.13C206.93 449.11 207.09 450.2 207.09 451.4V461H204V451.61C204 450.85 203.9 450.17 203.7 449.57C203.5 448.97 203.16 448.5 202.68 448.16C202.2 447.82 201.53 447.68 200.67 447.74C199.87 447.74 199.16 447.91 198.54 448.25C197.92 448.59 197.43 449.04 197.07 449.6C196.71 450.16 196.53 450.78 196.53 451.46V461H193.44V445.25H196.53V447.74C197.01 447 197.71 446.35 198.63 445.79C199.55 445.21 200.57 444.92 201.69 444.92ZM212.062 453.11C212.062 454.15 212.292 455.08 212.752 455.9C213.232 456.7 213.852 457.34 214.612 457.82C215.392 458.28 216.222 458.51 217.102 458.51C218.102 458.51 218.972 458.25 219.712 457.73C220.452 457.21 221.052 456.67 221.512 456.11L223.222 458.21C222.842 458.75 222.322 459.26 221.662 459.74C221.002 460.2 220.252 460.58 219.412 460.88C218.572 461.16 217.692 461.3 216.772 461.3C215.332 461.3 214.032 460.94 212.872 460.22C211.712 459.5 210.792 458.52 210.112 457.28C209.452 456.04 209.122 454.65 209.122 453.11C209.122 451.55 209.452 450.16 210.112 448.94C210.792 447.7 211.712 446.72 212.872 446C214.032 445.28 215.332 444.92 216.772 444.92C218.232 444.92 219.532 445.22 220.672 445.82C221.812 446.4 222.662 447.16 223.222 448.1L221.512 450.2C221.052 449.52 220.392 448.94 219.532 448.46C218.692 447.96 217.872 447.71 217.072 447.71C216.132 447.71 215.282 447.95 214.522 448.43C213.762 448.89 213.162 449.53 212.722 450.35C212.282 451.15 212.062 452.07 212.062 453.11ZM238.466 458.93H238.436C237.796 459.55 236.916 460.1 235.796 460.58C234.676 461.06 233.506 461.3 232.286 461.3C230.646 461.3 229.196 460.96 227.936 460.28C226.696 459.58 225.726 458.63 225.026 457.43C224.326 456.21 223.976 454.83 223.976 453.29C223.976 451.53 224.346 450.03 225.086 448.79C225.826 447.53 226.806 446.57 228.026 445.91C229.246 445.23 230.576 444.89 232.016 444.89C233.336 444.89 234.536 445.22 235.616 445.88C236.696 446.52 237.556 447.41 238.196 448.55C238.836 449.69 239.156 451.02 239.156 452.54L239.126 453.86H227.066C227.246 455.28 227.826 456.41 228.806 457.25C229.806 458.07 231.066 458.48 232.586 458.48C233.686 458.48 234.576 458.28 235.256 457.88C235.936 457.46 236.496 457.06 236.936 456.68L238.466 458.93ZM232.016 447.74C230.836 447.74 229.806 448.02 228.926 448.58C228.046 449.12 227.466 450.06 227.186 451.4H236.006V451.19C235.946 450.51 235.716 449.91 235.316 449.39C234.936 448.87 234.456 448.47 233.876 448.19C233.296 447.89 232.676 447.74 232.016 447.74ZM249.483 455.27C249.783 455.71 250.143 456.18 250.563 456.68C251.003 457.18 251.513 457.6 252.093 457.94C252.693 458.28 253.373 458.45 254.133 458.45C254.733 458.45 255.333 458.3 255.933 458C256.533 457.68 257.033 457.22 257.433 456.62C257.853 456 258.063 455.25 258.063 454.37C258.063 453.47 257.893 452.75 257.553 452.21C257.233 451.67 256.803 451.28 256.263 451.04C255.723 450.8 255.133 450.68 254.493 450.68C253.873 450.68 253.243 450.78 252.603 450.98C251.983 451.16 251.403 451.36 250.863 451.58L249.963 449.21L255.603 443H248.133V440H260.163L260.763 441.2L254.883 447.71C256.043 447.71 257.093 448 258.033 448.58C258.993 449.14 259.753 449.91 260.313 450.89C260.893 451.87 261.183 452.97 261.183 454.19C261.183 455.63 260.833 456.89 260.133 457.97C259.453 459.03 258.553 459.85 257.433 460.43C256.333 461.01 255.153 461.3 253.893 461.3C252.713 461.3 251.693 461.11 250.833 460.73C249.993 460.33 249.263 459.79 248.643 459.11C248.023 458.43 247.463 457.68 246.963 456.86L249.483 455.27Z" fill="white"/>
<path d="M135.069 485.128V487H127.221V474.4H129.165V485.128H135.069ZM138.05 475.498C137.63 475.498 137.318 475.39 137.114 475.174C136.91 474.958 136.808 474.676 136.808 474.328C136.808 474.028 136.91 473.758 137.114 473.518C137.318 473.278 137.63 473.158 138.05 473.158C138.47 473.158 138.782 473.266 138.986 473.482C139.19 473.698 139.292 473.98 139.292 474.328C139.292 474.628 139.19 474.898 138.986 475.138C138.782 475.378 138.47 475.498 138.05 475.498ZM139.004 487H137.15V477.55H139.004V487ZM142.196 477.55L144.95 484.3L147.812 477.55H149.72L145.526 487H144.194L140.198 477.55H142.196ZM158.551 485.758H158.533C158.149 486.13 157.621 486.46 156.949 486.748C156.277 487.036 155.575 487.18 154.843 487.18C153.859 487.18 152.989 486.976 152.233 486.568C151.489 486.148 150.907 485.578 150.487 484.858C150.067 484.126 149.857 483.298 149.857 482.374C149.857 481.318 150.079 480.418 150.523 479.674C150.967 478.918 151.555 478.342 152.287 477.946C153.019 477.538 153.817 477.334 154.681 477.334C155.473 477.334 156.193 477.532 156.841 477.928C157.489 478.312 158.005 478.846 158.389 479.53C158.773 480.214 158.965 481.012 158.965 481.924L158.947 482.716H151.711C151.819 483.568 152.167 484.246 152.755 484.75C153.355 485.242 154.111 485.488 155.023 485.488C155.683 485.488 156.217 485.368 156.625 485.128C157.033 484.876 157.369 484.636 157.633 484.408L158.551 485.758ZM154.681 479.044C153.973 479.044 153.355 479.212 152.827 479.548C152.299 479.872 151.951 480.436 151.783 481.24H157.075V481.114C157.039 480.706 156.901 480.346 156.661 480.034C156.433 479.722 156.145 479.482 155.797 479.314C155.449 479.134 155.077 479.044 154.681 479.044Z" fill="#FF4646"/>
<path d="M167.446 487V476.272H163.918V474.4H173.026V476.272H169.39V487H167.446ZM178.455 479.548C178.335 479.488 178.185 479.44 178.005 479.404C177.837 479.356 177.657 479.332 177.465 479.332C177.081 479.332 176.703 479.434 176.331 479.638C175.959 479.83 175.647 480.112 175.395 480.484C175.155 480.844 175.035 481.276 175.035 481.78V487H173.163V477.55H175.035V479.332C175.299 478.756 175.695 478.282 176.223 477.91C176.763 477.538 177.327 477.352 177.915 477.352C178.359 477.352 178.701 477.412 178.941 477.532L178.455 479.548ZM188.101 477.55V487H186.229V485.542C185.941 485.938 185.515 486.31 184.951 486.658C184.387 487.006 183.733 487.18 182.989 487.18C182.197 487.18 181.471 486.97 180.811 486.55C180.163 486.13 179.647 485.548 179.263 484.804C178.879 484.06 178.687 483.208 178.687 482.248C178.687 481.288 178.885 480.442 179.281 479.71C179.677 478.966 180.223 478.39 180.919 477.982C181.615 477.562 182.407 477.352 183.295 477.352C183.955 477.352 184.531 477.496 185.023 477.784C185.527 478.072 185.929 478.408 186.229 478.792V477.55H188.101ZM183.421 485.47C183.997 485.47 184.501 485.332 184.933 485.056C185.365 484.768 185.701 484.384 185.941 483.904C186.181 483.412 186.301 482.86 186.301 482.248C186.301 481.648 186.181 481.108 185.941 480.628C185.701 480.148 185.365 479.77 184.933 479.494C184.501 479.206 183.997 479.062 183.421 479.062C182.869 479.062 182.377 479.2 181.945 479.476C181.513 479.752 181.177 480.13 180.937 480.61C180.697 481.09 180.577 481.636 180.577 482.248C180.577 482.86 180.697 483.412 180.937 483.904C181.177 484.384 181.513 484.768 181.945 485.056C182.377 485.332 182.869 485.47 183.421 485.47ZM198.825 473.68V487H196.971V485.668C196.695 486.04 196.287 486.388 195.747 486.712C195.207 487.024 194.595 487.18 193.911 487.18C193.059 487.18 192.291 486.97 191.607 486.55C190.923 486.13 190.383 485.548 189.987 484.804C189.591 484.06 189.393 483.214 189.393 482.266C189.393 481.306 189.591 480.46 189.987 479.728C190.383 478.984 190.917 478.402 191.589 477.982C192.261 477.562 193.017 477.352 193.857 477.352C194.529 477.352 195.135 477.49 195.675 477.766C196.227 478.042 196.659 478.366 196.971 478.738V473.68H198.825ZM194.163 485.578C194.739 485.578 195.243 485.434 195.675 485.146C196.107 484.858 196.443 484.462 196.683 483.958C196.923 483.454 197.043 482.89 197.043 482.266C197.043 481.63 196.923 481.066 196.683 480.574C196.443 480.07 196.107 479.674 195.675 479.386C195.243 479.098 194.739 478.954 194.163 478.954C193.599 478.954 193.101 479.098 192.669 479.386C192.237 479.674 191.895 480.07 191.643 480.574C191.403 481.066 191.283 481.63 191.283 482.266C191.283 482.89 191.403 483.454 191.643 483.958C191.895 484.462 192.237 484.858 192.669 485.146C193.101 485.434 193.599 485.578 194.163 485.578ZM201.9 475.498C201.48 475.498 201.168 475.39 200.964 475.174C200.76 474.958 200.658 474.676 200.658 474.328C200.658 474.028 200.76 473.758 200.964 473.518C201.168 473.278 201.48 473.158 201.9 473.158C202.32 473.158 202.632 473.266 202.836 473.482C203.04 473.698 203.142 473.98 203.142 474.328C203.142 474.628 203.04 474.898 202.836 475.138C202.632 475.378 202.32 475.498 201.9 475.498ZM202.854 487H201V477.55H202.854V487ZM209.897 477.352C210.749 477.352 211.409 477.526 211.877 477.874C212.345 478.222 212.669 478.69 212.849 479.278C213.041 479.866 213.137 480.52 213.137 481.24V487H211.283V481.366C211.283 480.91 211.223 480.502 211.103 480.142C210.983 479.782 210.779 479.5 210.491 479.296C210.203 479.092 209.801 479.008 209.285 479.044C208.805 479.044 208.379 479.146 208.007 479.35C207.635 479.554 207.341 479.824 207.125 480.16C206.909 480.496 206.801 480.868 206.801 481.276V487H204.947V477.55H206.801V479.044C207.089 478.6 207.509 478.21 208.061 477.874C208.613 477.526 209.225 477.352 209.897 477.352ZM216.228 488.566C216.588 488.842 217.038 489.064 217.578 489.232C218.118 489.4 218.646 489.484 219.162 489.484C220.134 489.484 220.878 489.244 221.394 488.764C221.91 488.296 222.168 487.588 222.168 486.64V485.488C222 485.776 221.76 486.052 221.448 486.316C221.136 486.568 220.77 486.778 220.35 486.946C219.93 487.102 219.492 487.18 219.036 487.18C218.16 487.18 217.368 486.97 216.66 486.55C215.952 486.13 215.388 485.548 214.968 484.804C214.56 484.06 214.356 483.214 214.356 482.266C214.356 481.306 214.56 480.46 214.968 479.728C215.376 478.984 215.928 478.402 216.624 477.982C217.332 477.562 218.118 477.352 218.982 477.352C219.702 477.352 220.338 477.514 220.89 477.838C221.454 478.15 221.88 478.492 222.168 478.864V477.55H224.022V486.424C224.022 487.552 223.794 488.458 223.338 489.142C222.894 489.838 222.3 490.342 221.556 490.654C220.824 490.978 220.026 491.14 219.162 491.14C218.49 491.14 217.818 491.032 217.146 490.816C216.486 490.612 215.952 490.342 215.544 490.006L216.228 488.566ZM219.234 479.044C218.658 479.044 218.142 479.188 217.686 479.476C217.242 479.752 216.888 480.136 216.624 480.628C216.372 481.108 216.246 481.654 216.246 482.266C216.246 482.878 216.372 483.424 216.624 483.904C216.888 484.384 217.242 484.768 217.686 485.056C218.142 485.332 218.658 485.47 219.234 485.47C219.834 485.47 220.356 485.332 220.8 485.056C221.256 484.78 221.61 484.402 221.862 483.922C222.114 483.43 222.24 482.878 222.24 482.266C222.24 481.642 222.114 481.09 221.862 480.61C221.61 480.13 221.256 479.752 220.8 479.476C220.356 479.188 219.834 479.044 219.234 479.044Z" fill="#C4C4C4"/>
<g filter="url(#filter3_d)">
<path d="M627.468 442.283C633.684 446.678 637.73 453.865 637.73 462C637.73 475.359 626.797 486.189 613.309 486.219C599.84 486.248 588.809 475.379 588.789 462.039C588.779 453.904 592.825 446.697 599.031 442.293C600.186 441.482 601.794 441.824 602.485 443.045L604.044 445.789C604.626 446.814 604.35 448.113 603.393 448.816C599.298 451.824 596.683 456.59 596.683 461.99C596.673 471.004 604.034 478.406 613.26 478.406C622.298 478.406 629.895 471.16 629.836 461.893C629.807 456.834 627.399 451.951 623.117 448.807C622.16 448.104 621.893 446.805 622.475 445.789L624.034 443.045C624.725 441.834 626.323 441.473 627.468 442.283ZM617.206 462.781V439.344C617.206 438.045 616.151 437 614.838 437H611.681C610.368 437 609.313 438.045 609.313 439.344V462.781C609.313 464.08 610.368 465.125 611.681 465.125H614.838C616.151 465.125 617.206 464.08 617.206 462.781Z" fill="#00CF98"/>
</g>
<defs>
<filter id="filter0_d" x="298.221" y="282.158" width="108.802" height="29.982" filterUnits="userSpaceOnUse" color-interpolation-filters="sRGB">
<feFlood flood-opacity="0" result="BackgroundImageFix"/>
<feColorMatrix in="SourceAlpha" type="matrix" values="0 0 0 0 0 0 0 0 0 0 0 0 0 0 0 0 0 0 127 0"/>
<feOffset dx="2" dy="4"/>
<feGaussianBlur stdDeviation="3"/>
<feColorMatrix type="matrix" values="0 0 0 0 1 0 0 0 0 0.4625 0 0 0 0 0.4625 0 0 0 0.25 0"/>
<feBlend mode="normal" in2="BackgroundImageFix" result="effect1_dropShadow"/>
<feBlend mode="normal" in="SourceGraphic" in2="effect1_dropShadow" result="shape"/>
</filter>
<filter id="filter1_d" x="745" y="230" width="94.5191" height="94" filterUnits="userSpaceOnUse" color-interpolation-filters="sRGB">
<feFlood flood-opacity="0" result="BackgroundImageFix"/>
<feColorMatrix in="SourceAlpha" type="matrix" values="0 0 0 0 0 0 0 0 0 0 0 0 0 0 0 0 0 0 127 0"/>
<feOffset dx="4" dy="4"/>
<feGaussianBlur stdDeviation="11"/>
<feColorMatrix type="matrix" values="0 0 0 0 0.941667 0 0 0 0 0.070625 0 0 0 0 0.070625 0 0 0 1 0"/>
<feBlend mode="normal" in2="BackgroundImageFix" result="effect1_dropShadow"/>
<feBlend mode="normal" in="SourceGraphic" in2="effect1_dropShadow" result="shape"/>
</filter>
<filter id="filter2_d" x="495" y="60" width="80.5191" height="80" filterUnits="userSpaceOnUse" color-interpolation-filters="sRGB">
<feFlood flood-opacity="0" result="BackgroundImageFix"/>
<feColorMatrix in="SourceAlpha" type="matrix" values="0 0 0 0 0 0 0 0 0 0 0 0 0 0 0 0 0 0 127 0"/>
<feOffset dx="3" dy="3"/>
<feGaussianBlur stdDeviation="7.5"/>
<feColorMatrix type="matrix" values="0 0 0 0 0.0342188 0 0 0 0 0.9125 0 0 0 0 0.67914 0 0 0 1 0"/>
<feBlend mode="normal" in2="BackgroundImageFix" result="effect1_dropShadow"/>
<feBlend mode="normal" in="SourceGraphic" in2="effect1_dropShadow" result="shape"/>
</filter>
<filter id="filter3_d" x="575" y="428" width="76.5191" height="76" filterUnits="userSpaceOnUse" color-interpolation-filters="sRGB">
<feFlood flood-opacity="0" result="BackgroundImageFix"/>
<feColorMatrix in="SourceAlpha" type="matrix" values="0 0 0 0 0 0 0 0 0 0 0 0 0 0 0 0 0 0 127 0"/>
<feOffset dy="4"/>
<feGaussianBlur stdDeviation="6.5"/>
<feColorMatrix type="matrix" values="0 0 0 0 0.354167 0 0 0 0 1 0 0 0 0 0.6125 0 0 0 1 0"/>
<feBlend mode="normal" in2="BackgroundImageFix" result="effect1_dropShadow"/>
<feBlend mode="normal" in="SourceGraphic" in2="effect1_dropShadow" result="shape"/>
</filter>
</defs>
</svg>
