<svg width="1721" height="833" viewBox="0 0 1721 833" fill="none" xmlns="http://www.w3.org/2000/svg">
<rect x="19" width="1685" height="578" rx="51" fill="url(#paint0_linear)"/>
<ellipse cx="1213" cy="384.5" rx="222" ry="208.5" fill="white" fill-opacity="0.4"/>
<circle cx="1213" cy="383" r="195" fill="white" fill-opacity="0.4"/>
<path fill-rule="evenodd" clip-rule="evenodd" d="M1394.89 102.515L1160.52 53.8027C1132.87 48.0573 1105.67 66.4773 1099.75 94.945L1090.91 137.49C1089.59 137.216 1088.3 138.061 1088.03 139.378L1083.58 160.792C1083.31 162.109 1084.15 163.398 1085.47 163.671L1080.37 188.216C1079.05 187.943 1077.76 188.788 1077.49 190.104L1067.93 236.065C1067.66 237.381 1068.51 238.67 1069.82 238.943L975.274 693.852C969.357 722.32 986.97 750.055 1014.61 755.801L1248.99 804.513C1276.63 810.259 1303.84 791.839 1309.75 763.371L1394.44 355.917C1395.75 356.19 1397.04 355.345 1397.32 354.029L1413.33 276.978C1413.61 275.661 1412.76 274.372 1411.44 274.099L1434.23 164.464C1440.15 135.996 1422.53 108.261 1394.89 102.515ZM1103.72 95.7706C1109.17 69.5623 1134.22 52.6042 1159.67 57.8936L1394.04 106.606C1419.49 111.896 1435.71 137.43 1430.26 163.638L1305.78 762.545C1300.33 788.754 1275.29 805.712 1249.84 800.422L1015.46 751.71C990.014 746.42 973.799 720.886 979.246 694.678L1103.72 95.7706ZM1056.56 302.761L1067.1 252.034C1065.79 251.76 1064.5 252.606 1064.22 253.922L1054.67 299.882C1054.4 301.198 1055.24 302.487 1056.56 302.761Z" fill="#AABBCC"/>
<mask id="mask0" mask-type="alpha" maskUnits="userSpaceOnUse" x="986" y="66" width="442" height="728">
<path d="M1257.36 786.621L1019.06 737.092C1001.2 733.382 989.789 715.731 993.547 697.649L1118.02 98.7418C1121.78 80.6601 1139.29 69.02 1157.14 72.7304L1395.44 122.259C1413.29 125.97 1424.71 143.62 1420.95 161.702L1296.47 760.609C1292.71 778.691 1275.21 790.331 1257.36 786.621Z" fill="white"/>
</mask>
<g mask="url(#mask0)">
<rect x="1118.45" y="49.4941" width="325" height="618" rx="59" transform="rotate(11.7413 1118.45 49.4941)" fill="#0E1431"/>
</g>
<path opacity="0.6" fill-rule="evenodd" clip-rule="evenodd" d="M1085.17 739.311C1085.41 738.181 1086.49 737.45 1087.58 737.678L1190.07 758.98C1191.17 759.208 1191.87 760.308 1191.63 761.438C1191.4 762.568 1190.32 763.299 1189.22 763.071L1086.73 741.769C1085.64 741.541 1084.94 740.441 1085.17 739.311Z" fill="#333333"/>
<path fill-rule="evenodd" clip-rule="evenodd" d="M1415.96 160.664C1419.72 142.582 1408.54 124.981 1390.98 121.332L1361.19 115.139C1358.55 114.592 1355.96 116.347 1355.4 119.058L1354.89 121.512C1352.81 131.494 1343.36 137.894 1333.67 135.879L1203.37 108.798C1193.68 106.784 1187.56 97.1475 1189.64 87.1657L1190.15 84.7112C1190.71 82 1189.03 79.3585 1186.4 78.8114L1156.61 72.6191C1139.05 68.9698 1121.78 80.6594 1118.02 98.7411L993.547 697.648C989.789 715.73 1000.97 733.331 1018.52 736.981L1252.9 785.693C1270.46 789.343 1287.72 777.653 1291.48 759.571L1415.96 160.664ZM1159.67 57.8918L1394.04 106.604C1419.46 111.889 1435.7 137.455 1430.26 163.636L1305.78 762.543C1300.34 788.725 1275.26 805.705 1249.84 800.42L1015.46 751.708C990.04 746.424 973.804 720.858 979.246 694.676L1103.72 95.7688C1109.17 69.5871 1134.24 52.6078 1159.67 57.8918Z" fill="#333333"/>
<g opacity="0.2">
<path d="M1313.58 112.926C1312.92 116.089 1309.9 118.136 1306.82 117.497C1303.75 116.859 1301.8 113.777 1302.45 110.614C1303.11 107.451 1306.13 105.404 1309.2 106.043C1312.28 106.681 1314.23 109.763 1313.58 112.926Z" fill="white"/>
<path d="M1254.9 98.1695C1253.58 97.8959 1252.28 98.773 1252 100.129C1251.72 101.484 1252.56 102.805 1253.88 103.079L1288.83 110.344C1290.15 110.618 1291.45 109.741 1291.73 108.385C1292.01 107.029 1291.17 105.709 1289.85 105.435L1254.9 98.1695Z" fill="white"/>
</g>
<path d="M1083.06 398.082C1082.9 398.897 1082.45 399.524 1081.74 399.965C1081.04 400.374 1080.29 400.497 1079.51 400.334C1078.66 400.158 1078.01 399.745 1077.56 399.095C1077.14 398.421 1077.02 397.676 1077.19 396.862L1082.84 369.698C1083.01 368.883 1083.43 368.268 1084.1 367.853C1084.78 367.406 1085.56 367.274 1086.44 367.456C1087.22 367.619 1087.84 368.041 1088.28 368.722C1088.74 369.372 1088.88 370.104 1088.71 370.919L1083.06 398.082ZM1107.83 379.501C1111.03 380.166 1113.04 381.58 1113.86 383.745C1114.69 385.879 1114.76 388.622 1114.06 391.975L1111.56 404.005C1111.39 404.82 1110.98 405.454 1110.33 405.907C1109.69 406.329 1108.96 406.455 1108.15 406.286C1107.33 406.117 1106.71 405.711 1106.29 405.067C1105.88 404.393 1105.75 403.648 1105.92 402.833L1108.42 390.802C1108.78 389.079 1108.7 387.657 1108.18 386.536C1107.67 385.384 1106.54 384.625 1104.78 384.261C1102.97 383.883 1101.43 384.119 1100.17 384.97C1098.93 385.789 1098.13 386.997 1097.8 388.595L1095.3 400.626C1095.13 401.44 1094.72 402.074 1094.07 402.528C1093.43 402.95 1092.7 403.076 1091.89 402.907C1091.07 402.737 1090.45 402.331 1090.03 401.688C1089.62 401.013 1089.49 400.268 1089.66 399.454L1093.7 380.045C1093.87 379.23 1094.27 378.612 1094.92 378.19C1095.57 377.737 1096.3 377.595 1097.11 377.764C1097.93 377.933 1098.54 378.355 1098.96 379.03C1099.38 379.673 1099.51 380.402 1099.34 381.217L1099.17 382.016C1100.25 381.064 1101.55 380.32 1103.07 379.786C1104.61 379.258 1106.2 379.163 1107.83 379.501ZM1130.29 405.349C1130.73 405.44 1131.08 405.741 1131.33 406.251C1131.62 406.736 1131.69 407.324 1131.55 408.013C1131.38 408.859 1130.76 409.482 1129.69 409.882C1128.67 410.257 1127.57 410.324 1126.41 410.083C1124.47 409.679 1122.91 408.93 1121.73 407.835C1120.59 406.716 1120.3 404.809 1120.86 402.115L1123.56 389.144L1121.4 388.695C1120.65 388.538 1120.07 388.157 1119.67 387.552C1119.28 386.946 1119.16 386.268 1119.31 385.516C1119.46 384.795 1119.84 384.252 1120.44 383.886C1121.04 383.489 1121.72 383.369 1122.47 383.525L1124.63 383.974L1125.26 380.967C1125.43 380.152 1125.83 379.534 1126.48 379.112C1127.16 378.665 1127.91 378.526 1128.72 378.696C1129.5 378.858 1130.1 379.277 1130.52 379.952C1130.94 380.595 1131.07 381.324 1130.9 382.139L1130.27 385.146L1133.61 385.84C1134.36 385.996 1134.94 386.377 1135.33 386.983C1135.73 387.588 1135.85 388.267 1135.69 389.019C1135.55 389.739 1135.17 390.298 1134.56 390.695C1133.96 391.061 1133.29 391.166 1132.54 391.009L1129.2 390.316L1126.55 403.052C1126.42 403.71 1126.49 404.231 1126.77 404.616C1127.05 404.97 1127.49 405.208 1128.09 405.332C1128.34 405.384 1128.7 405.393 1129.16 405.359C1129.57 405.28 1129.95 405.277 1130.29 405.349ZM1161.36 403.618C1161.17 404.363 1160.74 404.912 1160.08 405.265C1159.42 405.618 1158.71 405.716 1157.96 405.56L1142.45 402.336C1142.44 404.263 1143 405.899 1144.13 407.244C1145.26 408.558 1146.67 409.391 1148.37 409.743C1149.65 410.01 1150.68 410.108 1151.44 410.039C1152.21 409.938 1152.83 409.804 1153.29 409.638C1153.79 409.448 1154.12 409.322 1154.3 409.26C1154.92 409.095 1155.48 409.065 1155.99 409.169C1156.64 409.306 1157.16 409.658 1157.53 410.226C1157.9 410.793 1158.02 411.391 1157.89 412.017C1157.72 412.863 1157.12 413.54 1156.1 414.046C1155.07 414.585 1153.77 414.951 1152.19 415.147C1150.62 415.342 1149.08 415.283 1147.57 414.971C1144.94 414.424 1142.75 413.397 1141.01 411.89C1139.29 410.39 1138.1 408.573 1137.43 406.441C1136.77 404.277 1136.69 401.989 1137.19 399.576C1137.75 396.882 1138.81 394.634 1140.36 392.832C1141.91 391.029 1143.72 389.788 1145.79 389.107C1147.87 388.395 1149.95 388.256 1152.05 388.693C1154.12 389.123 1155.95 390.09 1157.53 391.596C1159.14 393.108 1160.3 394.933 1161 397.073C1161.7 399.212 1161.82 401.393 1161.36 403.618ZM1150.98 393.862C1147.35 393.107 1144.84 394.368 1143.48 397.647L1155.79 400.206L1155.86 399.877C1156.01 398.535 1155.6 397.273 1154.63 396.093C1153.67 394.912 1152.45 394.168 1150.98 393.862ZM1170.03 416.157C1169.86 416.972 1169.43 417.602 1168.75 418.049C1168.11 418.471 1167.38 418.597 1166.57 418.428C1165.78 418.265 1165.18 417.862 1164.76 417.219C1164.34 416.544 1164.22 415.8 1164.39 414.985L1170.43 385.942C1170.6 385.127 1171 384.509 1171.64 384.087C1172.33 383.64 1173.07 383.502 1173.89 383.671C1174.67 383.834 1175.27 384.252 1175.69 384.927C1176.11 385.57 1176.23 386.299 1176.07 387.114L1170.03 416.157ZM1182.7 418.79C1182.53 419.604 1182.1 420.235 1181.42 420.682C1180.78 421.104 1180.05 421.23 1179.23 421.061C1178.45 420.898 1177.85 420.495 1177.43 419.852C1177.01 419.177 1176.89 418.432 1177.06 417.618L1183.09 388.574C1183.26 387.76 1183.67 387.142 1184.31 386.72C1184.99 386.273 1185.74 386.134 1186.56 386.304C1187.34 386.466 1187.94 386.885 1188.35 387.56C1188.78 388.203 1188.9 388.932 1188.73 389.747L1182.7 418.79ZM1194.56 421.257C1194.39 422.071 1193.98 422.705 1193.33 423.158C1192.69 423.58 1191.96 423.707 1191.15 423.537C1190.33 423.368 1189.72 422.962 1189.29 422.318C1188.88 421.644 1188.75 420.899 1188.92 420.084L1192.96 400.675C1193.13 399.861 1193.53 399.242 1194.18 398.82C1194.83 398.367 1195.56 398.225 1196.37 398.395C1197.19 398.564 1197.8 398.986 1198.22 399.66C1198.64 400.304 1198.77 401.033 1198.6 401.847L1194.56 421.257ZM1196.96 395.33C1195.9 395.109 1195.18 394.78 1194.81 394.344C1194.45 393.908 1194.35 393.252 1194.54 392.375L1194.72 391.482C1194.9 390.604 1195.27 390.042 1195.81 389.795C1196.35 389.548 1197.14 389.532 1198.17 389.747C1199.27 389.975 1200 390.307 1200.37 390.743C1200.73 391.179 1200.83 391.835 1200.64 392.712L1200.46 393.605C1200.27 394.514 1199.9 395.092 1199.36 395.339C1198.86 395.561 1198.06 395.558 1196.96 395.33ZM1210.71 428.093C1208.45 427.624 1206.51 426.926 1204.87 425.997C1203.23 425.068 1201.79 423.771 1200.53 422.105C1199.84 421.177 1199.59 420.259 1199.78 419.35C1199.93 418.63 1200.33 418.058 1200.97 417.636C1201.62 417.183 1202.32 417.035 1203.07 417.191C1203.67 417.315 1204.16 417.613 1204.55 418.087C1205.59 419.381 1206.66 420.387 1207.75 421.105C1208.84 421.822 1210.2 422.35 1211.83 422.689C1213.59 423.053 1215.17 422.974 1216.59 422.452C1218.04 421.935 1218.88 421.098 1219.12 419.938C1219.41 418.528 1219.02 417.302 1217.93 416.258C1216.84 415.183 1214.98 414.158 1212.34 413.185C1205.68 410.756 1202.92 406.847 1204.04 401.458C1204.45 399.485 1205.32 397.884 1206.65 396.658C1207.99 395.4 1209.63 394.581 1211.58 394.201C1213.53 393.788 1215.6 393.81 1217.79 394.266C1219.76 394.676 1221.55 395.358 1223.15 396.312C1224.78 397.272 1226.07 398.358 1227.03 399.57C1227.79 400.479 1228.07 401.404 1227.88 402.344C1227.73 403.064 1227.33 403.651 1226.68 404.105C1226.03 404.527 1225.35 404.663 1224.63 404.513C1224.16 404.415 1223.77 404.186 1223.45 403.826C1222.77 402.999 1221.75 402.166 1220.39 401.327C1219.07 400.464 1217.83 399.912 1216.67 399.671C1214.69 399.26 1213.08 399.317 1211.83 399.841C1210.61 400.341 1209.88 401.185 1209.63 402.376C1209.35 403.723 1209.69 404.855 1210.64 405.773C1211.63 406.696 1213.26 407.625 1215.55 408.558C1218.15 409.588 1220.17 410.645 1221.61 411.729C1223.09 412.789 1224.1 414.045 1224.65 415.499C1225.21 416.921 1225.27 418.682 1224.83 420.781C1224.42 422.755 1223.49 424.377 1222.05 425.646C1220.65 426.891 1218.94 427.728 1216.92 428.159C1214.91 428.558 1212.84 428.536 1210.71 428.093ZM1241.03 428.366C1241.47 428.457 1241.82 428.757 1242.07 429.268C1242.36 429.753 1242.44 430.341 1242.29 431.03C1242.12 431.876 1241.5 432.499 1240.43 432.899C1239.41 433.274 1238.32 433.341 1237.16 433.1C1235.21 432.696 1233.65 431.947 1232.48 430.852C1231.34 429.733 1231.05 427.826 1231.61 425.132L1234.3 412.161L1232.14 411.711C1231.39 411.555 1230.81 411.174 1230.42 410.569C1230.02 409.963 1229.9 409.285 1230.06 408.533C1230.21 407.812 1230.58 407.269 1231.18 406.903C1231.78 406.506 1232.46 406.386 1233.21 406.542L1235.38 406.991L1236 403.984C1236.17 403.169 1236.58 402.551 1237.22 402.129C1237.9 401.682 1238.65 401.543 1239.46 401.713C1240.25 401.875 1240.85 402.294 1241.26 402.969C1241.68 403.612 1241.81 404.341 1241.64 405.156L1241.02 408.163L1244.35 408.857C1245.1 409.013 1245.68 409.394 1246.08 410C1246.47 410.605 1246.59 411.284 1246.44 412.036C1246.29 412.756 1245.91 413.315 1245.3 413.712C1244.71 414.078 1244.03 414.183 1243.28 414.026L1239.94 413.333L1237.29 426.069C1237.16 426.727 1237.23 427.248 1237.51 427.633C1237.79 427.987 1238.24 428.225 1238.83 428.349C1239.08 428.401 1239.44 428.41 1239.9 428.376C1240.31 428.297 1240.69 428.294 1241.03 428.366ZM1273.57 427.578C1273.05 430.084 1272.02 432.223 1270.47 433.994C1268.93 435.733 1267.06 436.946 1264.86 437.632C1262.69 438.325 1260.43 438.427 1258.08 437.939C1255.7 437.444 1253.65 436.446 1251.94 434.946C1250.22 433.446 1249.01 431.591 1248.29 429.383C1247.58 427.144 1247.48 424.771 1248 422.264C1248.52 419.758 1249.55 417.635 1251.09 415.895C1252.64 414.125 1254.49 412.893 1256.66 412.2C1258.84 411.476 1261.12 411.361 1263.5 411.856C1265.85 412.345 1267.88 413.355 1269.59 414.886C1271.33 416.393 1272.56 418.266 1273.27 420.506C1273.99 422.714 1274.09 425.071 1273.57 427.578ZM1267.93 426.406C1268.25 424.871 1268.2 423.439 1267.79 422.112C1267.42 420.76 1266.75 419.641 1265.79 418.755C1264.87 417.876 1263.74 417.299 1262.43 417.026C1261.11 416.752 1259.84 416.831 1258.6 417.261C1257.4 417.697 1256.34 418.458 1255.43 419.543C1254.56 420.603 1253.96 421.901 1253.64 423.436C1253.32 424.972 1253.35 426.4 1253.73 427.72C1254.14 429.048 1254.81 430.151 1255.74 431.03C1256.7 431.916 1257.84 432.496 1259.15 432.769C1260.47 433.043 1261.73 432.961 1262.93 432.525C1264.16 432.095 1265.22 431.35 1266.09 430.289C1267 429.235 1267.61 427.941 1267.93 426.406ZM1291.95 417.768C1294.61 418.322 1296.67 419.191 1298.12 420.375C1299.58 421.528 1300.17 422.794 1299.88 424.173C1299.74 424.862 1299.41 425.431 1298.89 425.879C1298.38 426.295 1297.79 426.435 1297.13 426.299C1296.63 426.194 1296.24 426.047 1295.95 425.857C1295.67 425.635 1295.4 425.382 1295.13 425.097C1294.9 424.788 1294.66 424.526 1294.41 424.311C1294.13 424.089 1293.69 423.85 1293.09 423.595C1292.52 423.345 1292.05 423.182 1291.67 423.104C1289.32 422.615 1287.32 422.967 1285.67 424.16C1284.05 425.328 1283 427.086 1282.51 429.436C1282.04 431.692 1282.32 433.712 1283.36 435.496C1284.4 437.248 1285.97 438.343 1288.07 438.779C1289.6 439.098 1290.79 439.148 1291.62 438.928C1291.82 438.873 1292.11 438.769 1292.47 438.614C1292.86 438.435 1293.22 438.312 1293.52 438.246C1293.83 438.179 1294.19 438.188 1294.6 438.273C1295.38 438.435 1295.94 438.813 1296.27 439.406C1296.64 440.004 1296.74 440.696 1296.58 441.479C1296.42 442.231 1295.84 442.845 1294.82 443.32C1293.81 443.796 1292.54 444.087 1291.01 444.195C1289.49 444.272 1287.92 444.141 1286.29 443.802C1283.88 443.301 1281.86 442.294 1280.25 440.782C1278.67 439.276 1277.58 437.432 1276.99 435.25C1276.4 433.037 1276.36 430.708 1276.87 428.264C1277.4 425.726 1278.38 423.578 1279.83 421.819C1281.3 420.067 1283.1 418.837 1285.2 418.132C1287.32 417.394 1289.56 417.273 1291.95 417.768ZM1321.8 445.544C1322.26 446.294 1322.41 447.061 1322.25 447.844C1322.09 448.628 1321.64 449.22 1320.9 449.623C1320.19 450.032 1319.5 450.164 1318.81 450.021C1317.99 449.852 1317.37 449.395 1316.94 448.652L1310.33 437.964L1307.59 439.6L1306.56 444.535C1306.39 445.35 1305.99 445.983 1305.34 446.437C1304.69 446.859 1303.96 446.985 1303.15 446.816C1302.33 446.646 1301.72 446.24 1301.29 445.597C1300.88 444.922 1300.76 444.177 1300.92 443.363L1306.96 414.319C1307.13 413.505 1307.54 412.887 1308.18 412.465C1308.83 412.011 1309.56 411.869 1310.38 412.039C1311.19 412.208 1311.81 412.63 1312.22 413.305C1312.64 413.948 1312.77 414.677 1312.6 415.492L1308.99 432.88L1321.07 425.242C1321.78 424.771 1322.54 424.616 1323.32 424.779C1324.01 424.922 1324.56 425.347 1324.97 426.053C1325.41 426.734 1325.57 427.372 1325.45 427.968C1325.29 428.719 1324.77 429.346 1323.88 429.848L1315.43 434.905L1321.8 445.544Z" fill="#00CF98"/>
<path d="M1323.39 423.963C1325.84 422.476 1329.03 423.256 1330.52 425.706V425.706L1317.74 433.463L1315.05 429.028L1323.39 423.963Z" fill="#00CF98"/>
<path d="M1323.19 424.142V424.142C1325.76 422.577 1329.12 423.396 1330.68 425.972L1335.14 433.313V433.313C1332.57 434.878 1329.21 434.059 1327.65 431.483L1323.19 424.142Z" fill="#00CF98"/>
<path d="M1335.31 433.209C1332.73 434.77 1329.37 433.945 1327.81 431.367V431.367L1340.19 423.873L1343.02 428.541L1335.31 433.209Z" fill="#00CF98"/>
<path d="M1349.97 421.226L1344.26 430.685L1338.94 421.762L1349.97 421.226Z" fill="#00CF98"/>
<rect y="578" width="1721" height="232" fill="#0E1431"/>
<defs>
<linearGradient id="paint0_linear" x1="108" y1="279" x2="1745.5" y2="472" gradientUnits="userSpaceOnUse">
<stop stop-color="#00CD9F"/>
<stop offset="1" stop-color="#00B9D7"/>
</linearGradient>
</defs>
</svg>
